<svg width="214" height="214" viewBox="0 0 214 214" fill="none" xmlns="http://www.w3.org/2000/svg">
<rect width="214" height="214" rx="16" fill="#DFEBF1"/>
<path d="M80 95C80 95 80 89 86 89H128C128 89 134 89 134 95V122C134 122 134 128 128 128H86C86 128 80 128 80 122V95Z" fill="#31373D"/>
<path d="M111.5 123.5C119.784 123.5 126.5 116.784 126.5 108.5C126.5 100.216 119.784 93.5 111.5 93.5C103.216 93.5 96.5 100.216 96.5 108.5C96.5 116.784 103.216 123.5 111.5 123.5Z" fill="#CCD6DD"/>
<path d="M111.5 120.5C118.127 120.5 123.5 115.127 123.5 108.5C123.5 101.873 118.127 96.5 111.5 96.5C104.873 96.5 99.5 101.873 99.5 108.5C99.5 115.127 104.873 120.5 111.5 120.5Z" fill="#31373D"/>
<path d="M111.5 116C115.642 116 119 112.642 119 108.5C119 104.358 115.642 101 111.5 101C107.358 101 104 104.358 104 108.5C104 112.642 107.358 116 111.5 116Z" fill="#3B88C3"/>
<path d="M128.75 96.5C129.993 96.5 131 95.4926 131 94.25C131 93.0074 129.993 92 128.75 92C127.507 92 126.5 93.0074 126.5 94.25C126.5 95.4926 127.507 96.5 128.75 96.5Z" fill="white"/>
<path d="M104 93.5L108.5 84.5L99.5 87.5L93.5 80L90.5 87.5L81.5 86L87.5 95L80 101H89L86 110L95 105.5L104 113L102.5 101L111.5 99.5L104 93.5Z" fill="#FFAC33"/>
<path d="M95 101L90.5 104L92 99.5L87.5 98L92 95L87.5 90.5H93.5L95 86L98 90.5L102.5 89L99.5 93.5L104 98L99.5 99.5L101 105.5L95 101Z" fill="white"/>
</svg>
