<svg width="214" height="214" viewBox="0 0 214 214" fill="none" xmlns="http://www.w3.org/2000/svg">
<rect width="214" height="214" rx="16" fill="#DFE1F1"/>
<g clip-path="url(#clip0_775_1956)">
<path d="M125.667 116.066C125.523 116.211 125.351 116.326 125.162 116.404C124.974 116.483 124.771 116.523 124.567 116.523C124.362 116.523 124.16 116.483 123.971 116.404C123.783 116.326 123.611 116.211 123.467 116.066L121.268 113.866C121.123 113.722 121.008 113.551 120.929 113.362C120.851 113.173 120.81 112.971 120.81 112.766C120.81 112.562 120.851 112.36 120.929 112.171C121.008 111.982 121.123 111.811 121.268 111.667L125.667 107.267C125.811 107.123 125.982 107.008 126.171 106.93C126.36 106.852 126.562 106.811 126.766 106.811C126.971 106.811 127.173 106.852 127.362 106.93C127.55 107.008 127.722 107.123 127.866 107.267L130.066 109.467C130.211 109.611 130.326 109.782 130.404 109.971C130.483 110.16 130.523 110.362 130.523 110.567C130.523 110.771 130.483 110.974 130.404 111.162C130.326 111.351 130.211 111.522 130.066 111.667L125.667 116.066ZM102.333 92.7323C102.189 92.8773 102.018 92.9923 101.829 93.0708C101.64 93.1493 101.438 93.1897 101.234 93.1897C101.029 93.1897 100.827 93.1493 100.638 93.0708C100.449 92.9923 100.278 92.8773 100.134 92.7323L97.9342 90.5328C97.7893 90.3887 97.6742 90.2173 97.5957 90.0286C97.5172 89.8398 97.4768 89.6374 97.4768 89.433C97.4768 89.2286 97.5172 89.0262 97.5957 88.8375C97.6742 88.6487 97.7893 88.4774 97.9342 88.3332L102.333 83.9341C102.478 83.7895 102.649 83.6748 102.838 83.5966C103.027 83.5183 103.229 83.478 103.433 83.478C103.637 83.478 103.84 83.5183 104.028 83.5966C104.217 83.6748 104.389 83.7895 104.533 83.9341L106.732 86.1337C106.877 86.2778 106.992 86.4492 107.071 86.6379C107.149 86.8266 107.19 87.029 107.19 87.2335C107.19 87.4379 107.149 87.6403 107.071 87.829C106.992 88.0177 106.877 88.1891 106.732 88.3332L102.333 92.7323Z" fill="#66757F"/>
<path d="M82.1111 113.222C85.2222 113.222 99.2222 114.778 99.2222 114.778C99.2222 114.778 100.778 128.778 100.778 131.889C100.778 135 97.6667 135 96.1111 133.444C94.5556 131.889 89.8889 124.111 89.8889 124.111C89.8889 124.111 82.1111 119.444 80.5556 117.889C79 116.333 79 113.222 82.1111 113.222ZM85.2222 88.3938C89.8889 88.3332 124.111 89.8887 124.111 89.8887C124.111 89.8887 125.548 124.111 125.608 128.778C125.667 133.444 121.31 135.003 119.6 128.779C117.89 122.555 111.667 102.333 111.667 102.333C111.667 102.333 89.9589 95.4623 85.2144 94.3967C79 92.9998 80.554 88.4529 85.2222 88.3938Z" fill="#55ACEE"/>
<path d="M121 83.6667C124.111 80.5556 131.889 79 133.444 80.5556C135 82.1111 133.444 89.8889 130.333 93C127.222 96.1111 100.778 121 100.778 121C100.778 121 90.6667 128 88.3333 125.667C86 123.333 93 113.222 93 113.222C93 113.222 117.889 86.7778 121 83.6667Z" fill="#CCD6DD"/>
<path d="M100.778 113.222C100.778 113.222 101.556 114 94.5556 121C87.5556 128 86.7778 127.222 86.7778 127.222C86.7778 127.222 86 126.444 93 119.444C100 112.444 100.778 113.222 100.778 113.222ZM124.111 85.2221C125.349 85.2221 126.536 85.7137 127.411 86.5889C128.286 87.4641 128.778 88.651 128.778 89.8887H130.03C130.207 89.3987 130.333 88.8854 130.333 88.3332C130.333 87.0955 129.842 85.9085 128.966 85.0333C128.091 84.1582 126.904 83.6665 125.667 83.6665C125.114 83.6665 124.601 83.7925 124.111 83.9698V85.2221Z" fill="#66757F"/>
</g>
<defs>
<clipPath id="clip0_775_1956">
<rect width="56" height="56" fill="white" transform="translate(79 79)"/>
</clipPath>
</defs>
</svg>
