<svg width="214" height="214" viewBox="0 0 214 214" fill="none" xmlns="http://www.w3.org/2000/svg">
<rect width="214" height="214" rx="16" fill="#E8F2EE"/>
<path d="M135.444 126.726C134.703 125.014 133.852 123.156 131.889 123.156H130.111C132.074 123.156 133.667 121.558 133.667 119.587V89.2363C133.668 88.7684 133.576 88.305 133.398 87.8724C133.22 87.4398 132.958 87.0465 132.628 86.715C132.298 86.3835 131.906 86.1203 131.474 85.9404C131.042 85.7605 130.579 85.6674 130.111 85.6665H83.8889C81.9262 85.6665 80.3333 87.2647 80.3333 89.2363V119.587C80.3333 121.558 81.9262 123.156 83.8889 123.156H82.1111C80.1484 123.156 79.1476 124.941 78.5556 126.726L75 135.428C75 137.402 76.5929 139 78.5556 139H135.444C137.407 139 139 137.402 139 135.43L135.444 126.726V126.726Z" fill="#CCD6DD"/>
<path d="M75.0142 135.578L75.0249 135.679L75.3271 136.909C75.6077 137.531 76.0614 138.059 76.6339 138.429C77.2064 138.8 77.8735 138.998 78.5556 139H135.444C136.362 138.997 137.243 138.639 137.904 138.001C138.564 137.363 138.951 136.495 138.986 135.578H75.0142Z" fill="#9AAAB4"/>
<path d="M130.111 117.8C130.111 118.787 129.316 119.585 128.333 119.585H85.6667C84.6853 119.585 83.8889 118.787 83.8889 117.8V91.0232C83.8889 90.0365 84.6853 89.2383 85.6667 89.2383H128.333C129.316 89.2383 130.111 90.0383 130.111 91.0232V117.8Z" fill="#5DADEC"/>
<path d="M133.5 130.186L132.148 126.319C131.724 125.501 131.02 124.831 130.036 124.831H84.0845C83.1031 124.831 82.4738 125.556 82.0293 126.673L80.8062 130.187C80.4169 131.247 81.6027 131.972 82.584 131.972H96.056C96.056 131.972 97.7218 131.889 98.0169 130.891C98.3582 129.739 98.7547 128.004 98.84 127.699C98.9716 127.229 99.5298 126.755 100.362 126.755H115.612C116.5 126.755 116.938 127.204 117.053 127.761C117.128 128.123 117.608 129.789 117.832 130.929C118.029 131.944 120.003 131.971 120.003 131.971H131.725C132.705 131.971 133.889 131.133 133.5 130.186V130.186Z" fill="#AEBBC1"/>
<path d="M114.778 133.868H100.945C100.278 133.868 99.9884 133.258 100.084 132.668C100.18 132.079 100.723 129.48 100.765 129.178C100.806 128.874 101.252 128.511 101.697 128.511H114.168C114.696 128.511 115.039 128.801 115.146 129.381C115.251 129.962 115.683 132.298 115.716 132.831C115.75 133.366 115.416 133.868 114.778 133.868V133.868Z" fill="#9AAAB4"/>
</svg>
