<svg width="214" height="214" viewBox="0 0 214 214" fill="none" xmlns="http://www.w3.org/2000/svg">
<rect width="214" height="214" rx="16" fill="#F1DFDF"/>
<g clip-path="url(#clip0_775_1943)">
<path d="M85 119C88.914 119 92.266 121.27 93.91 124.544L100.864 121.066C97.976 115.116 91.892 111 84.832 111C82.3152 111.001 79.8273 111.537 77.534 112.574L80.87 119.914C82.1652 119.317 83.5737 119.005 85 119V119ZM129 119C131.934 119 134.544 120.286 136.376 122.296L142.17 117.026C140.502 115.132 138.45 113.615 136.15 112.576C133.85 111.537 131.356 111 128.832 111C121.68 111 115.528 115.222 112.686 121.3L119.982 124.744C121.586 121.36 125.006 119 129 119Z" fill="#EA596E"/>
<path d="M85 115C83.1615 115 81.341 115.362 79.6424 116.066C77.9439 116.769 76.4005 117.8 75.1005 119.101C73.8005 120.401 72.7693 121.944 72.0657 123.642C71.3621 125.341 71 127.161 71 129C71 130.839 71.3621 132.659 72.0657 134.358C72.7693 136.056 73.8005 137.599 75.1005 138.899C76.4005 140.2 77.9439 141.231 79.6424 141.934C81.341 142.638 83.1615 143 85 143C88.713 143 92.274 141.525 94.8995 138.899C97.525 136.274 99 132.713 99 129C99 125.287 97.525 121.726 94.8995 119.101C92.274 116.475 88.713 115 85 115V115ZM85 139C82.3478 139 79.8043 137.946 77.9289 136.071C76.0536 134.196 75 131.652 75 129C75 126.348 76.0536 123.804 77.9289 121.929C79.8043 120.054 82.3478 119 85 119C87.6522 119 90.1957 120.054 92.0711 121.929C93.9464 123.804 95 126.348 95 129C95 131.652 93.9464 134.196 92.0711 136.071C90.1957 137.946 87.6522 139 85 139V139ZM129 115C125.287 115 121.726 116.476 119.1 119.102C116.475 121.727 115 125.289 115 129.002C115 132.715 116.476 136.276 119.102 138.902C121.727 141.527 125.289 143.002 129.002 143.002C130.841 143.002 132.661 142.64 134.36 141.936C136.059 141.232 137.602 140.201 138.902 138.9C140.202 137.6 141.233 136.057 141.937 134.358C142.64 132.659 143.002 130.839 143.002 129C143.002 127.161 142.64 125.341 141.936 123.642C141.232 121.943 140.201 120.4 138.9 119.1C137.6 117.8 136.057 116.769 134.358 116.065C132.659 115.362 130.839 115 129 115V115ZM129 139C126.348 139 123.804 137.946 121.929 136.071C120.054 134.196 119 131.652 119 129C119 126.348 120.054 123.804 121.929 121.929C123.804 120.054 126.348 119 129 119C131.652 119 134.196 120.054 136.071 121.929C137.946 123.804 139 126.348 139 129C139 131.652 137.946 134.196 136.071 136.071C134.196 137.946 131.652 139 129 139V139Z" fill="#292F33"/>
<path d="M130.968 128.844C130.955 128.71 130.928 128.577 130.888 128.448C130.853 128.32 130.805 128.195 130.746 128.076C130.72 128.028 130.716 127.972 130.688 127.926L116.688 105.926C116.547 105.704 116.364 105.512 116.149 105.362C115.933 105.211 115.691 105.104 115.434 105.047C115.178 104.99 114.913 104.984 114.654 105.029C114.395 105.075 114.148 105.171 113.926 105.312C113.647 105.494 113.418 105.745 113.263 106.04C113.107 106.335 113.029 106.665 113.036 106.998H95C94.4696 106.998 93.9609 107.209 93.5858 107.584C93.2107 107.959 93 108.468 93 108.998C93 109.528 93.2107 110.037 93.5858 110.412C93.9609 110.787 94.4696 110.998 95 110.998H115C115.054 110.998 115.1 110.97 115.154 110.966L125.356 127H107C106.47 127 105.961 127.211 105.586 127.586C105.211 127.961 105 128.47 105 129C105 129.53 105.211 130.039 105.586 130.414C105.961 130.789 106.47 131 107 131H129.002C129.309 130.993 129.61 130.917 129.882 130.776C129.944 130.742 130.014 130.728 130.076 130.688C130.136 130.648 130.172 130.586 130.226 130.544C130.433 130.383 130.604 130.181 130.728 129.95C130.788 129.838 130.838 129.73 130.878 129.606C130.919 129.475 130.945 129.34 130.958 129.204C130.966 129.132 131 129.072 131 129C131 128.946 130.972 128.898 130.968 128.844Z" fill="#DD2E44"/>
<path d="M114.162 103L108.364 119.234L96.506 105.684C96.334 105.483 96.1239 105.318 95.8878 105.199C95.6517 105.08 95.3942 105.009 95.1304 104.99C94.8666 104.971 94.6016 105.004 94.3509 105.088C94.1001 105.172 93.8684 105.305 93.6694 105.479C93.4704 105.653 93.3078 105.865 93.1912 106.103C93.0747 106.34 93.0063 106.598 92.9902 106.862C92.9741 107.126 93.0105 107.391 93.0973 107.641C93.1841 107.891 93.3196 108.121 93.496 108.318L106.824 123.548L105.116 128.328C104.938 128.828 104.965 129.378 105.193 129.857C105.42 130.336 105.828 130.706 106.328 130.884C106.828 131.062 107.378 131.035 107.857 130.807C108.336 130.58 108.706 130.172 108.884 129.672L118.41 103H114.162Z" fill="#DD2E44"/>
<path d="M85 131C84.6594 131 84.3246 130.912 84.0272 130.746C83.7299 130.58 83.48 130.34 83.3011 130.05C83.1222 129.761 83.0203 129.43 83.0051 129.09C82.9898 128.749 83.0617 128.411 83.214 128.106L89.338 115.894C89.372 115.838 93 110.302 93 105C93 98.5161 88.414 96.9141 88.368 96.8981C88.1157 96.8176 87.8818 96.6877 87.6801 96.5161C87.4783 96.3445 87.3126 96.1345 87.1927 95.8984C87.0727 95.6622 87.0009 95.4046 86.9813 95.1404C86.9618 94.8763 86.9949 94.6109 87.0787 94.3596C87.1625 94.1084 87.2955 93.8763 87.4697 93.6768C87.644 93.4773 87.8562 93.3145 88.0939 93.1977C88.3316 93.0809 88.5902 93.0124 88.8545 92.9964C89.1189 92.9803 89.3839 93.0169 89.634 93.1041C89.934 93.2041 97 95.6661 97 105C97 111.136 93.328 117.084 92.738 117.994L86.79 129.892C86.6247 130.225 86.3695 130.506 86.0531 130.702C85.7368 130.897 85.372 131.001 85 131V131Z" fill="#DD2E44"/>
<path d="M100.224 98.326C100.113 98.3265 100.003 98.3171 99.894 98.298L87.894 96.298C87.3707 96.2107 86.9035 95.9192 86.5952 95.4874C86.2869 95.0557 86.1627 94.5192 86.25 93.996C86.3373 93.4727 86.6288 93.0055 87.0605 92.6972C87.4922 92.3889 88.0287 92.2647 88.552 92.352L100.552 94.352C101.049 94.4328 101.496 94.6978 101.806 95.0942C102.116 95.4905 102.265 95.9891 102.224 96.4905C102.182 96.9919 101.954 97.4593 101.583 97.7994C101.212 98.1396 100.727 98.3276 100.224 98.326ZM123.766 105C123.706 105 123.647 104.996 123.588 104.988L112.244 103.572C111.875 103.541 111.533 103.367 111.29 103.087C111.048 102.807 110.925 102.443 110.948 102.074C110.971 101.704 111.137 101.358 111.412 101.11C111.687 100.862 112.048 100.731 112.418 100.746C112.5 100.746 120.552 100.71 124.396 98.148C124.642 97.9849 124.933 97.9023 125.228 97.9116C125.523 97.9209 125.809 98.0217 126.044 98.2C126.278 98.3803 126.45 98.6288 126.536 98.9111C126.623 99.1935 126.619 99.4957 126.526 99.776L125.108 104.03C125.015 104.313 124.835 104.558 124.594 104.733C124.353 104.907 124.063 105 123.766 105V105Z" fill="#292F33"/>
<path d="M111 129C111 130.061 110.579 131.078 109.828 131.828C109.078 132.579 108.061 133 107 133C105.939 133 104.922 132.579 104.172 131.828C103.421 131.078 103 130.061 103 129C103 127.939 103.421 126.922 104.172 126.172C104.922 125.421 105.939 125 107 125C108.061 125 109.078 125.421 109.828 126.172C110.579 126.922 111 127.939 111 129V129Z" fill="#66757F"/>
</g>
<defs>
<clipPath id="clip0_775_1943">
<rect width="72" height="72" fill="white" transform="translate(71 71)"/>
</clipPath>
</defs>
</svg>
