<svg width="94" height="60" viewBox="0 0 94 60" fill="none" xmlns="http://www.w3.org/2000/svg">
<rect x="0.116974" width="92.8944" height="60" rx="10" fill="#A0CC4B" fill-opacity="0.18"/>
<g clip-path="url(#clip0_775_235)">
<path d="M27.2492 20.7231C26.5356 21.5676 25.3939 22.2336 24.2521 22.1384C24.1094 20.9967 24.6684 19.7835 25.3225 19.0343C26.0361 18.166 27.2849 17.5476 28.2958 17.5C28.4148 18.6893 27.9509 19.8549 27.2492 20.7231ZM28.284 22.3644C26.6308 22.2693 25.2154 23.304 24.4305 23.304C23.6336 23.304 22.4324 22.412 21.1241 22.4358C19.4233 22.4596 17.8415 23.4229 16.9733 24.9572C15.1893 28.0257 16.5095 32.569 18.234 35.0666C19.0784 36.3035 20.0894 37.6594 21.4214 37.6118C22.6821 37.5642 23.1817 36.7912 24.704 36.7912C26.2383 36.7912 26.6783 37.6118 28.0104 37.588C29.39 37.5642 30.2583 36.3511 31.1027 35.1142C32.0661 33.7108 32.4586 32.343 32.4823 32.2716C32.4586 32.2479 29.8182 31.2369 29.7944 28.1922C29.7706 25.647 31.8758 24.4339 31.9709 24.3625C30.7816 22.6023 28.9262 22.412 28.284 22.3644ZM37.8344 18.9153V37.4572H40.7126V31.118H44.6969C48.3363 31.118 50.8934 28.6204 50.8934 25.0048C50.8934 21.3892 48.3839 18.9153 44.792 18.9153H37.8344V18.9153ZM40.7126 21.3416H44.0309C46.5285 21.3416 47.9557 22.6736 47.9557 25.0167C47.9557 27.3597 46.5285 28.7036 44.019 28.7036H40.7126V21.3416V21.3416ZM56.1503 37.5999C57.9581 37.5999 59.6351 36.6841 60.3962 35.2331H60.4557V37.4572H63.1198V28.2279C63.1198 25.5519 60.979 23.8273 57.6845 23.8273C54.6279 23.8273 52.3682 25.5756 52.2849 27.9781H54.8777C55.0918 26.8363 56.1503 26.0871 57.6013 26.0871C59.3615 26.0871 60.3487 26.9077 60.3487 28.4182V29.441L56.7568 29.6551C53.4148 29.8573 51.607 31.225 51.607 33.6037C51.607 36.0062 53.4743 37.5999 56.1503 37.5999ZM56.9233 35.3996C55.3891 35.3996 54.4138 34.6622 54.4138 33.5324C54.4138 32.3668 55.3534 31.6889 57.1493 31.5818L60.3487 31.3796V32.4263C60.3487 34.1627 58.8739 35.3996 56.9233 35.3996ZM66.676 42.5C69.4828 42.5 70.803 41.4296 71.9567 38.1827L77.0114 24.0057H74.0856L70.6959 34.9596H70.6365L67.2468 24.0057H64.2378L69.1141 37.5048L68.8525 38.3254C68.4124 39.7169 67.6988 40.2521 66.4262 40.2521C66.2002 40.2521 65.7602 40.2284 65.5818 40.2046V42.4286C65.7483 42.4762 66.4619 42.5 66.676 42.5Z" fill="black"/>
</g>
<defs>
<clipPath id="clip0_775_235">
<rect width="60.8944" height="25" fill="white" transform="translate(16.117 17.5)"/>
</clipPath>
</defs>
</svg>
