<svg width="74" height="60" viewBox="0 0 74 60" fill="none" xmlns="http://www.w3.org/2000/svg">
<rect x="0.939392" width="72.625" height="60" rx="10" fill="#A0CC4B" fill-opacity="0.18"/>
<g clip-path="url(#clip0_775_217)">
<path d="M42.4871 20.1619H31.5979V39.7253H42.4871V20.1619Z" fill="#FF5A00"/>
<path d="M32.3228 29.9436C32.3228 25.9689 34.1913 22.4412 37.0586 20.1619C34.9484 18.5027 32.2865 17.5 29.383 17.5C22.5048 17.5 16.9394 23.0654 16.9394 29.9436C16.9394 36.8218 22.5048 42.3872 29.383 42.3872C32.2865 42.3872 34.9484 41.3845 37.0586 39.7254C34.1873 37.4783 32.3228 33.9183 32.3228 29.9436Z" fill="#EB001B"/>
<path d="M57.1778 29.9436C57.1778 36.8218 51.6124 42.3872 44.7342 42.3872C41.8307 42.3872 39.1688 41.3845 37.0586 39.7254C39.9621 37.442 41.7944 33.9183 41.7944 29.9436C41.7944 25.9689 39.9259 22.4412 37.0586 20.1619C39.1647 18.5027 41.8266 17.5 44.7301 17.5C51.6124 17.5 57.1778 23.1016 57.1778 29.9436Z" fill="#F79E1B"/>
</g>
<defs>
<clipPath id="clip0_775_217">
<rect width="40.625" height="25" fill="white" transform="translate(16.9394 17.5)"/>
</clipPath>
</defs>
</svg>
