<svg width="98" height="60" viewBox="0 0 98 60" fill="none" xmlns="http://www.w3.org/2000/svg">
<rect x="0.135132" width="97.5022" height="60" rx="10" fill="#A0CC4B" fill-opacity="0.18"/>
<g clip-path="url(#clip0_775_189)">
<path d="M55.4408 28.0467H53.8081C53.7745 27.9131 53.7495 27.7581 53.7329 27.5822C53.6996 27.2398 53.6996 26.8949 53.7329 26.5525C53.7495 26.3769 53.7745 26.2221 53.8081 26.0877H57.8771V38.9724C57.6734 39.0078 57.468 39.0328 57.2617 39.0473C57.0569 39.063 56.8515 39.0713 56.646 39.0722C56.4492 39.0709 56.2525 39.0626 56.0562 39.0473C55.85 39.0327 55.6448 39.0075 55.4412 38.972V28.0462V28.0465L55.4408 28.0467ZM69.6059 31.287C69.6059 30.818 69.543 30.3702 69.4178 29.9429C69.292 29.5162 69.1073 29.1438 68.8652 28.8254C68.6219 28.5076 68.3123 28.252 67.9356 28.0596C67.5589 27.867 67.1109 27.7706 66.5919 27.7706C65.5705 27.7706 64.7877 28.0808 64.2436 28.7C63.6994 29.3194 63.3689 30.1817 63.2515 31.287H69.606H69.6059ZM63.2265 33.1454C63.26 34.5519 63.6242 35.5818 64.3191 36.2345C65.0136 36.8874 66.0394 37.2144 67.3957 37.2144C68.5842 37.2144 69.7145 37.0048 70.7861 36.5862C70.9197 36.8374 71.0284 37.143 71.1123 37.503C71.1945 37.8535 71.245 38.2107 71.2629 38.5703C70.7108 38.8053 70.1033 38.9804 69.4424 39.0979C68.7805 39.2147 68.0481 39.2737 67.2449 39.2737C66.0724 39.2737 65.0676 39.1099 64.2309 38.7837C63.3935 38.4569 62.7029 37.9964 62.1587 37.4023C61.6146 36.808 61.2167 36.1047 60.9656 35.2924C60.7146 34.4806 60.5887 33.5889 60.5887 32.6177C60.5887 31.6634 60.71 30.7716 60.9529 29.9426C61.1953 29.1143 61.5686 28.3941 62.0704 27.783C62.5729 27.1716 63.2049 26.6862 63.9668 26.3262C64.7283 25.9662 65.6282 25.786 66.6668 25.786C67.5541 25.786 68.3326 25.9369 69.0026 26.2382C69.672 26.5395 70.2331 26.954 70.6853 27.4814C71.1373 28.009 71.4805 28.6369 71.715 29.3649C71.9493 30.0935 72.0669 30.8845 72.0669 31.7387C72.0669 31.9732 72.058 32.22 72.0414 32.4794C72.0276 32.7014 72.0109 32.9233 71.9913 33.1449H63.226L63.2262 33.1453L63.2265 33.1454ZM74.806 26.0877C74.9808 26.056 75.1567 26.0309 75.3334 26.0125C75.5004 25.9961 75.6766 25.9876 75.8608 25.9876C76.045 25.9876 76.2289 25.9961 76.4134 26.0125C76.5974 26.0295 76.765 26.0547 76.9158 26.0877C76.9656 26.339 77.0159 26.67 77.0659 27.0798C77.1161 27.4901 77.1416 27.8372 77.1416 28.1221C77.4931 27.553 77.9578 27.0587 78.5353 26.64C79.113 26.2217 79.8538 26.0121 80.7579 26.0121C80.8918 26.0121 81.0298 26.0166 81.1722 26.0249C81.2941 26.0315 81.4159 26.0438 81.5364 26.0623C81.5697 26.2132 81.5954 26.3725 81.6119 26.5397C81.6284 26.7069 81.6368 26.8829 81.6368 27.0669C81.6368 27.268 81.6243 27.4775 81.5993 27.6947C81.5752 27.9047 81.5459 28.114 81.5116 28.3225C81.3759 28.2891 81.2366 28.2722 81.0969 28.2723H80.7576C80.3057 28.2723 79.8744 28.3352 79.4642 28.4606C79.0536 28.5863 78.6855 28.8083 78.3591 29.1261C78.0329 29.4444 77.7731 29.8799 77.5809 30.4324C77.3879 30.985 77.2919 31.6966 77.2919 32.5672V38.972C77.0882 39.0073 76.8828 39.0326 76.6764 39.0472C76.4507 39.0639 76.2454 39.0721 76.0614 39.0721C75.856 39.0712 75.6507 39.0629 75.4459 39.0472C75.2314 39.0316 75.0176 39.0065 74.8053 38.9721V26.0878L74.806 26.0877ZM57.1788 19.2079C57.1788 19.5085 57.1245 19.8066 57.0186 20.0879C56.7372 20.1939 56.4389 20.2482 56.1382 20.2483H56.1346C55.8339 20.2483 55.5356 20.1941 55.2542 20.0881C55.1481 19.8067 55.0937 19.5085 55.0937 19.2077V19.2038C55.0937 18.894 55.1506 18.5972 55.2536 18.3235C55.535 18.2173 55.8334 18.163 56.1342 18.1632H56.1376C56.4475 18.1632 56.7441 18.2201 57.0179 18.3235C57.124 18.6048 57.1783 18.9031 57.1781 19.2038V19.2077H57.1785L57.1788 19.2079ZM60.2477 18.5109H57.8142L59.5348 16.7902C59.2642 16.4102 58.932 16.0781 58.552 15.8076L56.8311 17.5284V15.0947C56.6023 15.0562 56.3707 15.0368 56.1386 15.0367H56.1342C55.8981 15.0367 55.6669 15.0569 55.4416 15.0947V17.5284L53.7203 15.8075C53.5307 15.9424 53.3528 16.093 53.1884 16.2576L53.1876 16.2584C53.0232 16.4229 52.8728 16.6009 52.7379 16.7903L54.4591 18.5109H52.0251C52.0251 18.5109 51.9672 18.9681 51.9672 19.2045V19.2073C51.9672 19.4437 51.9872 19.6753 52.0252 19.9007H54.4593L52.7378 21.6212C53.0085 22.0012 53.3407 22.3333 53.7207 22.604L55.4417 20.8834V23.3172C55.6667 23.3549 55.8976 23.3748 56.1334 23.3751H56.1393C56.371 23.3749 56.6024 23.3555 56.831 23.3172V20.8834L58.5521 22.6044C58.7417 22.4694 58.9197 22.3188 59.0844 22.1543H59.0848C59.2491 21.9896 59.3995 21.8116 59.5344 21.622L57.8138 19.9009H60.2478C60.2856 19.6755 60.3055 19.4447 60.3055 19.2089V19.2029C60.3055 18.971 60.2861 18.7398 60.2478 18.5112V18.5109H60.2477ZM16.1351 38.6209L22.9164 28.0719H16.9387C16.8887 27.7706 16.8636 27.436 16.8636 27.0675C16.8636 26.716 16.8891 26.3891 16.9392 26.0876H26.6087L26.7344 26.4147L19.9029 36.9883H26.3072C26.3574 37.3233 26.3827 37.6662 26.3827 38.0177C26.3827 38.3531 26.3575 38.671 26.3074 38.9724H16.2609L16.1351 38.6205V38.6209ZM35.7001 32.9192C35.449 32.886 35.1308 32.8529 34.7457 32.819C34.3606 32.7858 34.0341 32.7688 33.7666 32.7688C32.7283 32.7688 31.9371 32.9614 31.3933 33.3465C30.8488 33.7319 30.5772 34.3176 30.5772 35.1046C30.5772 35.6069 30.6689 36.0004 30.8532 36.2849C31.0371 36.57 31.2676 36.7872 31.5439 36.938C31.8203 37.0886 32.1255 37.1809 32.4602 37.2144C32.795 37.2478 33.1133 37.2645 33.4146 37.2645C33.7998 37.2645 34.1974 37.2435 34.6077 37.2016C35.0177 37.16 35.3819 37.097 35.7002 37.0133V32.9192H35.7001ZM35.7001 30.4833C35.7001 29.495 35.449 28.8085 34.9468 28.4234C34.4443 28.0382 33.716 27.8456 32.7617 27.8456C32.1752 27.8456 31.6272 27.892 31.1167 27.984C30.6115 28.0746 30.1123 28.1961 29.6219 28.3478C29.3036 27.7952 29.145 27.1343 29.145 26.3636C29.7136 26.1797 30.3414 26.0374 31.0282 25.9369C31.7147 25.8363 32.376 25.786 33.0126 25.786C34.6868 25.786 35.9592 26.1672 36.83 26.929C37.7004 27.6914 38.1361 28.9094 38.1361 30.5835V38.6458C37.5498 38.7797 36.8384 38.9177 36.0013 39.0601C35.1549 39.2031 34.2979 39.2745 33.4395 39.2737C32.6191 39.2737 31.8779 39.1986 31.2169 39.0478C30.5553 38.8968 29.9943 38.6545 29.534 38.3192C29.0731 37.9846 28.7178 37.5575 28.4663 37.0386C28.2153 36.5194 28.0897 35.8917 28.0897 35.1548C28.0897 34.435 28.2361 33.8028 28.5292 33.2583C28.8172 32.7204 29.2255 32.2563 29.7224 31.9022C30.2247 31.5427 30.8022 31.2744 31.4553 31.0989C32.1085 30.9229 32.7947 30.8349 33.5147 30.8349C34.0505 30.8349 34.49 30.8477 34.8334 30.8729C35.1764 30.8978 35.4653 30.9271 35.6998 30.9607V30.4834L35.7001 30.4833ZM43.335 36.8621C43.6521 36.9793 43.9804 37.0635 44.3147 37.1134C44.6495 37.1638 45.0845 37.1889 45.6208 37.1889C46.2234 37.1889 46.7757 37.0928 47.278 36.9003C47.7805 36.7081 48.2116 36.4106 48.5716 36.0085C48.9316 35.6069 49.2161 35.1007 49.4254 34.4889C49.6347 33.8781 49.7396 33.1542 49.7396 32.3166C49.7396 30.9772 49.4922 29.9139 48.9986 29.1269C48.5043 28.34 47.6964 27.9465 46.575 27.9465C46.1565 27.9465 45.7543 28.0217 45.3698 28.1726C44.9841 28.3233 44.6412 28.5494 44.3397 28.8507C44.0384 29.152 43.7957 29.5332 43.6116 29.9936C43.4269 30.4545 43.3352 31.0023 43.3352 31.6387V36.8625V36.8623L43.335 36.8621ZM40.8486 26.0874C41.0189 26.0539 41.1905 26.0289 41.3634 26.0122C41.543 25.9956 41.7232 25.9873 41.9036 25.9873C42.0705 25.9873 42.2461 25.996 42.4307 26.0122C42.6147 26.0293 42.7905 26.0545 42.9581 26.0876C42.9746 26.1216 42.9959 26.2258 43.021 26.4017C43.0459 26.5776 43.0711 26.7659 43.0964 26.9666C43.1215 27.1677 43.1465 27.3607 43.1717 27.5443C43.1968 27.7288 43.2094 27.846 43.2094 27.8962C43.3764 27.6286 43.5775 27.3688 43.812 27.1176C44.0465 26.8664 44.3273 26.6404 44.6537 26.4397C44.9802 26.2386 45.3483 26.0797 45.7588 25.9623C46.1688 25.8452 46.6251 25.7861 47.1275 25.7861C47.8808 25.7861 48.5799 25.9119 49.2249 26.1631C49.8691 26.4147 50.4213 26.8034 50.8821 27.3309C51.3423 27.8585 51.7022 28.5283 51.9619 29.3401C52.2213 30.1529 52.351 31.1113 52.351 32.2162C52.351 34.4262 51.7523 36.1555 50.555 37.4027C49.3576 38.6502 47.6628 39.2737 45.4694 39.2737C45.1009 39.2737 44.7243 39.2485 44.3392 39.1983C43.9538 39.1479 43.6192 39.0808 43.3344 38.9975V44.8998C43.1222 44.9343 42.9087 44.9594 42.6943 44.9751C42.4681 44.9915 42.2628 45 42.0786 45C41.8733 44.9991 41.6681 44.9908 41.4634 44.9751C41.2572 44.9605 41.0518 44.9354 40.8482 44.8998V26.0876L40.8486 26.0874Z" fill="#FF4A00"/>
</g>
<defs>
<clipPath id="clip0_775_189">
<rect width="65.5022" height="30" fill="white" transform="translate(16.1351 15)"/>
</clipPath>
</defs>
</svg>
