<svg width="126" height="60" viewBox="0 0 126 60" fill="none" xmlns="http://www.w3.org/2000/svg">
<rect width="125.939" height="60" rx="10" fill="#A0CC4B" fill-opacity="0.18"/>
<g clip-path="url(#clip0_775_205)">
<path d="M51.0083 22.6129H45.8273C45.4727 22.6129 45.1712 22.8704 45.1159 23.2204L43.0205 36.506C42.9788 36.7682 43.1818 37.0045 43.4477 37.0045H45.9212C46.2758 37.0045 46.5773 36.7469 46.6326 36.3962L47.1977 32.8129C47.2523 32.4621 47.5545 32.2045 47.9083 32.2045H49.5485C52.9614 32.2045 54.9311 30.553 55.4455 27.2803C55.6773 25.8485 55.4553 24.7235 54.7848 23.9356C54.0485 23.0704 52.7424 22.6129 51.0083 22.6129ZM51.6061 27.4651C51.3227 29.3242 49.9023 29.3242 48.5288 29.3242H47.747L48.2955 25.8522C48.328 25.6424 48.5098 25.4879 48.722 25.4879H49.0803C50.0159 25.4879 50.8985 25.4879 51.3545 26.0212C51.6265 26.3394 51.7098 26.8121 51.6061 27.4651Z" fill="#253B80"/>
<path d="M66.4954 27.4053H64.0144C63.803 27.4053 63.6204 27.5599 63.5879 27.7697L63.478 28.4637L63.3045 28.2121C62.7674 27.4326 61.5697 27.172 60.3742 27.172C57.6326 27.172 55.2909 29.2485 54.8348 32.1614C54.5977 33.6144 54.9348 35.0038 55.7591 35.9728C56.5151 36.8637 57.597 37.2349 58.8841 37.2349C61.0932 37.2349 62.3182 35.8144 62.3182 35.8144L62.2076 36.5038C62.1659 36.7675 62.3689 37.0038 62.6333 37.0038H64.8682C65.2235 37.0038 65.5235 36.7462 65.5795 36.3955L66.9204 27.9038C66.9629 27.6425 66.7606 27.4053 66.4954 27.4053ZM63.0371 32.2341C62.7977 33.6515 61.6727 34.6031 60.2379 34.6031C59.5174 34.6031 58.9417 34.372 58.572 33.9341C58.2053 33.4993 58.0659 32.8803 58.1826 32.1909C58.4061 30.7856 59.55 29.8031 60.9629 29.8031C61.6674 29.8031 62.2401 30.0371 62.6174 30.4788C62.9954 30.925 63.1454 31.5478 63.0371 32.2341Z" fill="#253B80"/>
<path d="M79.7091 27.4053H77.2159C76.978 27.4053 76.7546 27.5235 76.6197 27.7212L73.1811 32.7863L71.7235 27.9189C71.6318 27.6144 71.3508 27.4053 71.0326 27.4053H68.5826C68.2849 27.4053 68.078 27.6962 68.1727 27.9765L70.9189 36.0356L68.3371 39.6803C68.1341 39.9674 68.3386 40.3621 68.6894 40.3621H71.1796C71.4159 40.3621 71.6371 40.2469 71.7712 40.053L80.0636 28.0833C80.2621 27.7969 80.0583 27.4053 79.7091 27.4053Z" fill="#253B80"/>
<path d="M87.9637 22.6129H82.7818C82.4281 22.6129 82.1265 22.8704 82.0712 23.2204L79.9758 36.506C79.9341 36.7682 80.1371 37.0045 80.4015 37.0045H83.0606C83.3076 37.0045 83.519 36.8242 83.5576 36.5788L84.1523 32.8129C84.2068 32.4621 84.5091 32.2045 84.8629 32.2045H86.5023C89.9159 32.2045 91.8849 30.553 92.4 27.2803C92.6326 25.8485 92.4091 24.7235 91.7387 23.9356C91.003 23.0704 89.6977 22.6129 87.9637 22.6129ZM88.5614 27.4651C88.2788 29.3242 86.8584 29.3242 85.4841 29.3242H84.7031L85.2523 25.8522C85.2849 25.6424 85.4652 25.4879 85.678 25.4879H86.0364C86.9712 25.4879 87.8546 25.4879 88.3106 26.0212C88.5826 26.3394 88.6652 26.8121 88.5614 27.4651Z" fill="#179BD7"/>
<path d="M103.45 27.4053H100.97C100.758 27.4053 100.576 27.5599 100.545 27.7697L100.435 28.4637L100.261 28.2121C99.7235 27.4326 98.5265 27.172 97.331 27.172C94.5894 27.172 92.2485 29.2485 91.7924 32.1614C91.556 33.6144 91.8916 35.0038 92.7159 35.9728C93.4735 36.8637 94.5538 37.2349 95.8409 37.2349C98.05 37.2349 99.275 35.8144 99.275 35.8144L99.1644 36.5038C99.1227 36.7675 99.3257 37.0038 99.5916 37.0038H101.826C102.18 37.0038 102.481 36.7462 102.536 36.3955L103.878 27.9038C103.919 27.6425 103.716 27.4053 103.45 27.4053ZM99.9916 32.2341C99.7538 33.6515 98.6272 34.6031 97.1924 34.6031C96.4735 34.6031 95.8962 34.372 95.5265 33.9341C95.1598 33.4993 95.0219 32.8803 95.1371 32.1909C95.3621 30.7856 96.5045 29.8031 97.9174 29.8031C98.6219 29.8031 99.1947 30.0371 99.5719 30.4788C99.9515 30.925 100.101 31.5478 99.9916 32.2341Z" fill="#179BD7"/>
<path d="M106.375 22.9773L104.248 36.5061C104.207 36.7682 104.41 37.0045 104.674 37.0045H106.812C107.167 37.0045 107.469 36.747 107.523 36.3962L109.62 23.1114C109.662 22.8492 109.459 22.6121 109.195 22.6121H106.801C106.589 22.6129 106.408 22.7674 106.375 22.9773Z" fill="#179BD7"/>
<path d="M21.5045 39.5864L21.9007 37.0697L21.0182 37.0492H16.8038L19.7326 18.4788C19.7417 18.4227 19.7712 18.3705 19.8144 18.3333C19.8576 18.2962 19.9129 18.2758 19.9704 18.2758H27.0765C29.4356 18.2758 31.0636 18.7667 31.9136 19.7356C32.3121 20.1902 32.5659 20.6652 32.6886 21.1879C32.8174 21.7364 32.8197 22.3917 32.6939 23.1909L32.6848 23.2492V23.7614L33.0833 23.9871C33.4189 24.1652 33.6856 24.3689 33.8901 24.6023C34.231 24.9909 34.4515 25.4848 34.5447 26.0705C34.6409 26.6727 34.6091 27.3894 34.4515 28.2008C34.2697 29.1341 33.9757 29.947 33.5788 30.6121C33.2136 31.225 32.7485 31.7333 32.1962 32.1273C31.6689 32.5015 31.0424 32.7856 30.3341 32.9674C29.6477 33.1462 28.8651 33.2364 28.0068 33.2364H27.4538C27.0583 33.2364 26.6742 33.3788 26.3727 33.6341C26.0704 33.8947 25.8704 34.2508 25.8091 34.6402L25.7674 34.8667L25.0674 39.3023L25.0356 39.4652C25.0273 39.5167 25.0129 39.5424 24.9916 39.5598C24.9727 39.5758 24.9454 39.5864 24.9189 39.5864H21.5045Z" fill="#253B80"/>
<path d="M33.4606 23.3083C33.4394 23.444 33.4151 23.5826 33.3879 23.725C32.4507 28.5364 29.2447 30.1985 25.15 30.1985H23.0651C22.5644 30.1985 22.1424 30.5621 22.0644 31.0561L20.9969 37.8258L20.6947 39.7447C20.6439 40.069 20.8939 40.3614 21.2212 40.3614H24.9189C25.3568 40.3614 25.7288 40.0432 25.7977 39.6114L25.8341 39.4235L26.5303 35.0053L26.575 34.7629C26.6432 34.3296 27.0159 34.0114 27.4538 34.0114H28.0068C31.5894 34.0114 34.3939 32.5568 35.2136 28.3477C35.556 26.5894 35.3788 25.1212 34.4727 24.0887C34.1985 23.7773 33.8583 23.519 33.4606 23.3083Z" fill="#179BD7"/>
<path d="M32.4803 22.9174C32.3371 22.8758 32.1894 22.8379 32.0379 22.8038C31.8856 22.7704 31.7295 22.7409 31.5689 22.7151C31.0068 22.6242 30.3909 22.5811 29.7311 22.5811H24.1614C24.0242 22.5811 23.8939 22.6121 23.7773 22.6682C23.5205 22.7917 23.3295 23.0348 23.2833 23.3326L22.0985 30.8371L22.0644 31.0561C22.1424 30.5621 22.5644 30.1985 23.0651 30.1985H25.15C29.2447 30.1985 32.4508 28.5356 33.3879 23.725C33.4159 23.5826 33.4394 23.4439 33.4606 23.3083C33.2235 23.1826 32.9667 23.075 32.6901 22.9833C32.622 22.9606 32.5515 22.9386 32.4803 22.9174Z" fill="#222D65"/>
<path d="M23.2833 23.3326C23.3295 23.0348 23.5204 22.7917 23.7773 22.6689C23.8947 22.6129 24.0242 22.5818 24.1614 22.5818H29.7311C30.3909 22.5818 31.0068 22.625 31.5689 22.7159C31.7295 22.7417 31.8856 22.7712 32.0379 22.8045C32.1894 22.8386 32.3371 22.8765 32.4803 22.9182C32.5515 22.9394 32.622 22.9614 32.6909 22.9833C32.9674 23.075 33.2242 23.1833 33.4614 23.3083C33.7401 21.5303 33.4591 20.3197 32.4977 19.2235C31.4379 18.0167 29.525 17.5 27.0773 17.5H19.9712C19.4712 17.5 19.0447 17.8636 18.9674 18.3583L16.0076 37.1197C15.9492 37.4909 16.2356 37.8258 16.6098 37.8258H20.997L22.0985 30.8371L23.2833 23.3326Z" fill="#253B80"/>
</g>
<defs>
<clipPath id="clip0_775_205">
<rect width="93.9394" height="25" fill="white" transform="translate(16 17.5)"/>
</clipPath>
</defs>
</svg>
