<svg width="153" height="60" viewBox="0 0 153 60" fill="none" xmlns="http://www.w3.org/2000/svg">
<rect x="0.637329" width="151.725" height="60" rx="10" fill="#A0CC4B" fill-opacity="0.18"/>
<g clip-path="url(#clip0_775_192)">
<path d="M41.259 33.0253C39.5895 39.7217 32.8072 43.797 26.1101 42.1271C19.4156 40.4576 15.3403 33.6749 17.0106 26.9789C18.6793 20.2817 25.4616 16.206 32.1568 17.8755C38.8536 19.545 42.9285 26.3285 41.259 33.0253V33.0253Z" fill="#F7931A"/>
<path d="M34.6458 28.2207C34.8947 26.5574 33.6283 25.6633 31.8967 25.0668L32.4584 22.8137L31.0869 22.472L30.5401 24.6657C30.1795 24.5758 29.8092 24.4911 29.4412 24.4071L29.992 22.1989L28.6213 21.8571L28.0592 24.1094C27.7608 24.0415 27.4678 23.9743 27.1835 23.9036L27.185 23.8965L25.2937 23.4243L24.9288 24.8891C24.9288 24.8891 25.9464 25.1223 25.9249 25.1368C26.4804 25.2754 26.5807 25.643 26.5639 25.9344L25.9241 28.5012C25.9624 28.5109 26.012 28.525 26.0667 28.5469C26.021 28.5355 25.9722 28.523 25.9218 28.5109L25.0249 32.1066C24.9569 32.2753 24.7847 32.5284 24.3964 32.4323C24.4101 32.4523 23.3995 32.1835 23.3995 32.1835L22.7187 33.7534L24.5034 34.1983C24.8355 34.2815 25.1608 34.3686 25.4811 34.4507L24.9136 36.7295L26.2835 37.0713L26.8456 34.8167C27.2198 34.9182 27.5831 35.012 27.9385 35.1003L27.3784 37.3444L28.7498 37.6862L29.3174 35.4116C31.6561 35.8542 33.4146 35.6756 34.1548 33.5604C34.7513 31.8574 34.1251 30.875 32.8947 30.2343C33.7908 30.0277 34.4658 29.4383 34.6458 28.2207V28.2207ZM31.5123 32.6148C31.0885 34.3179 28.2209 33.3972 27.2913 33.1663L28.0444 30.1472C28.9741 30.3792 31.9553 30.8386 31.5123 32.6148ZM31.9365 28.1961C31.5498 29.7453 29.1631 28.9582 28.3889 28.7652L29.0717 26.027C29.8459 26.2199 32.3392 26.5801 31.9365 28.1961Z" fill="white"/>
<path d="M53.2667 25.0645C54.2803 25.0645 55.1561 25.2461 55.892 25.6028C56.6315 25.9629 57.2416 26.4481 57.731 27.0582C58.2138 27.6715 58.5732 28.3883 58.8052 29.2097C59.0357 30.0336 59.1513 30.9191 59.1513 31.8671C59.1513 33.3234 58.8845 34.6991 58.3459 35.996C57.8072 37.2948 57.0764 38.4213 56.1467 39.3822C55.2178 40.342 54.1209 41.0986 52.8561 41.6576C51.5932 42.217 50.2202 42.4967 48.746 42.4967C48.5554 42.4967 48.2202 42.4912 47.7468 42.4814C47.2734 42.4717 46.7293 42.4228 46.1199 42.3404C45.5066 42.2549 44.8582 42.1283 44.1734 41.9588C43.4891 41.7924 42.8391 41.5592 42.227 41.2631L47.7003 18.265L52.6026 17.5052L50.6429 25.6665C51.0624 25.4774 51.485 25.3309 51.9069 25.2243C52.3292 25.1192 52.7823 25.0645 53.2667 25.0645V25.0645ZM49.1546 38.6076C49.8929 38.6076 50.5886 38.426 51.2421 38.0694C51.8975 37.7124 52.4632 37.2303 52.937 36.6299C53.4108 36.0268 53.7858 35.3476 54.0592 34.5886C54.3327 33.8296 54.4709 33.0378 54.4709 32.214C54.4709 31.2019 54.3018 30.4125 53.9647 29.8418C53.6276 29.2734 53.0038 28.9875 52.0979 28.9875C51.8011 28.9875 51.4186 29.0441 50.9444 29.1453C50.4687 29.2527 50.0429 29.4758 49.6612 29.8113L47.5746 38.4784C47.7003 38.5006 47.8117 38.5217 47.9066 38.5416C47.9995 38.5631 48.1023 38.5784 48.2046 38.5889C48.3128 38.601 48.4367 38.6073 48.5863 38.6073C48.7359 38.6073 48.923 38.6076 49.1546 38.6076V38.6076Z" fill="#4D4D4D"/>
<path d="M64.2352 42.0564H59.5529L63.5071 25.4172H68.2215L64.2352 42.0564ZM66.5137 23.3899C65.8602 23.3899 65.2676 23.1953 64.7419 22.8055C64.2118 22.418 63.9493 21.8215 63.9493 21.0176C63.9493 20.5755 64.0391 20.1606 64.2173 19.7692C64.3981 19.3786 64.6344 19.0423 64.9305 18.7563C65.2262 18.4728 65.5688 18.2462 65.9579 18.0755C66.3493 17.9075 66.7657 17.8235 67.2094 17.8235C67.8625 17.8235 68.452 18.0181 68.9797 18.4079C69.5055 18.7997 69.7699 19.3962 69.7699 20.1958C69.7699 20.6395 69.6805 21.0559 69.5008 21.4465C69.3223 21.8372 69.0859 22.1735 68.7899 22.4594C68.4965 22.7434 68.1508 22.9692 67.7625 23.1383C67.3707 23.309 66.9559 23.3899 66.5137 23.3899Z" fill="#4D4D4D"/>
<path d="M72.325 21.2715L77.2292 20.5118L76.0249 25.4164H81.2772L80.3287 29.2749H75.1081L73.7175 35.0952C73.5894 35.5803 73.5167 36.0334 73.4964 36.4545C73.4734 36.8775 73.5269 37.2408 73.6535 37.5467C73.7792 37.8533 74.0054 38.0896 74.3335 38.2568C74.6601 38.4267 75.1276 38.5123 75.7409 38.5123C76.246 38.5123 76.7382 38.4642 77.2139 38.3689C77.687 38.2752 78.1663 38.1447 78.6514 37.974L79.0006 41.5818C78.3678 41.8138 77.6827 42.0134 76.9444 42.1814C76.205 42.3517 75.3296 42.4337 74.3179 42.4337C72.8632 42.4337 71.7355 42.2177 70.932 41.7876C70.1297 41.3544 69.5625 40.7626 69.2231 40.0134C68.8883 39.267 68.7387 38.4064 68.7805 37.4369C68.8238 36.4651 68.9703 35.4436 69.2231 34.3678L72.325 21.2715V21.2715Z" fill="#4D4D4D"/>
<path d="M81.0709 35.412C81.0709 33.9788 81.3029 32.6273 81.7666 31.362C82.2295 30.0957 82.8963 28.9882 83.7615 28.0379C84.6236 27.0922 85.674 26.343 86.9103 25.793C88.1407 25.2461 89.5184 24.9703 91.0368 24.9703C91.9871 24.9703 92.836 25.0602 93.5828 25.2403C94.3328 25.4219 95.0113 25.6567 95.625 25.9512L94.0102 29.623C93.5883 29.4519 93.1504 29.3011 92.6977 29.1644C92.2446 29.025 91.6914 28.9578 91.0372 28.9578C89.4743 28.9578 88.2388 29.4964 87.3192 30.5702C86.4032 31.6448 85.9419 33.0913 85.9419 34.9057C85.9419 35.9811 86.174 36.8506 86.6396 37.5158C87.1028 38.1811 87.9587 38.5119 89.2012 38.5119C89.8145 38.5119 90.4063 38.4479 90.9731 38.3229C91.5442 38.1963 92.0485 38.0369 92.4926 37.8486L92.8422 41.6127C92.25 41.8423 91.5969 42.0498 90.8805 42.2314C90.1626 42.4068 89.3079 42.4978 88.3169 42.4978C87.0087 42.4978 85.9013 42.3064 84.9955 41.9295C84.0892 41.5466 83.3404 41.0384 82.7506 40.3947C82.1576 39.7494 81.7318 38.9959 81.4686 38.1311C81.2053 37.267 81.0709 36.3592 81.0709 35.412V35.412Z" fill="#4D4D4D"/>
<path d="M101.871 42.4978C100.754 42.4978 99.7831 42.3275 98.9597 41.9904C98.1386 41.6533 97.4585 41.1802 96.9207 40.567C96.382 39.9568 95.9789 39.2338 95.7027 38.4006C95.4265 37.5678 95.2937 36.6455 95.2937 35.635C95.2937 34.3675 95.4973 33.1003 95.9086 31.8366C96.3179 30.5703 96.9253 29.4324 97.7292 28.4211C98.5269 27.4082 99.5109 26.5801 100.669 25.9344C101.827 25.293 103.158 24.9703 104.653 24.9703C105.751 24.9703 106.716 25.141 107.551 25.4781C108.382 25.8145 109.066 26.2914 109.607 26.9016C110.142 27.5148 110.549 28.2347 110.822 29.0691C111.098 29.9003 111.234 30.8249 111.234 31.8362C111.234 33.0999 111.033 34.3671 110.635 35.6346C110.236 36.8959 109.644 38.0365 108.863 39.0502C108.083 40.0615 107.108 40.8892 105.937 41.5322C104.767 42.1752 103.411 42.4978 101.871 42.4978V42.4978ZM104.212 28.9582C103.517 28.9582 102.904 29.1597 102.378 29.5578C101.851 29.9605 101.408 30.4667 101.051 31.0773C100.69 31.6905 100.423 32.3593 100.242 33.0862C100.062 33.8147 99.9745 34.5034 99.9745 35.1577C99.9745 36.2135 100.145 37.0358 100.48 37.6276C100.819 38.2162 101.429 38.5123 102.315 38.5123C103.012 38.5123 103.622 38.3123 104.151 37.91C104.675 37.5104 105.118 37.0037 105.478 36.392C105.837 35.7819 106.106 35.1112 106.287 34.3831C106.464 33.6569 106.555 32.9644 106.555 32.3112C106.555 31.2581 106.385 30.4339 106.047 29.8429C105.71 29.2543 105.097 28.9582 104.212 28.9582Z" fill="#4D4D4D"/>
<path d="M116.336 42.0564H111.65L115.604 25.4172H120.321L116.336 42.0564V42.0564ZM118.611 23.3899C117.958 23.3899 117.366 23.1953 116.841 22.8055C116.313 22.418 116.048 21.8215 116.048 21.0176C116.048 20.5755 116.14 20.1606 116.318 19.7692C116.497 19.3786 116.734 19.0423 117.031 18.7563C117.325 18.4728 117.67 18.2462 118.059 18.0755C118.448 17.9075 118.864 17.8235 119.306 17.8235C119.961 17.8235 120.552 18.0181 121.079 18.4079C121.606 18.7997 121.872 19.3962 121.872 20.1958C121.872 20.6395 121.777 21.0559 121.6 21.4465C121.423 21.8372 121.186 22.1735 120.891 22.4594C120.594 22.7434 120.252 22.9692 119.863 23.1383C119.471 23.309 119.055 23.3899 118.611 23.3899V23.3899Z" fill="#4D4D4D"/>
<path d="M123.695 26.1738C124.051 26.0699 124.448 25.945 124.879 25.809C125.312 25.6731 125.796 25.5465 126.337 25.4325C126.872 25.3149 127.475 25.2196 128.139 25.1457C128.803 25.0704 129.559 25.0336 130.399 25.0336C132.869 25.0336 134.571 25.7528 135.511 27.1867C136.45 28.6207 136.612 30.5832 136.003 33.0706L133.849 42.0549H129.136L131.223 33.2597C131.351 32.7105 131.451 32.1796 131.524 31.6609C131.599 31.1468 131.595 30.6937 131.508 30.3015C131.424 29.914 131.228 29.5968 130.924 29.3511C130.615 29.1094 130.148 28.9879 129.515 28.9879C128.905 28.9879 128.283 29.0535 127.649 29.1801L124.58 42.0545H119.865L123.695 26.1738V26.1738Z" fill="#4D4D4D"/>
</g>
<defs>
<clipPath id="clip0_775_192">
<rect width="119.725" height="25" fill="white" transform="translate(16.6373 17.5)"/>
</clipPath>
</defs>
</svg>
