<svg width="139" height="60" viewBox="0 0 139 60" fill="none" xmlns="http://www.w3.org/2000/svg">
<rect x="0.397461" width="137.738" height="60" rx="10" fill="#A0CC4B" fill-opacity="0.18"/>
<g clip-path="url(#clip0_775_176)">
<path d="M39.2052 20.682C39.1848 20.533 39.0546 20.4503 38.9465 20.4413C38.8393 20.4323 36.7386 20.4004 36.7386 20.4004C36.7386 20.4004 34.9818 18.6943 34.8082 18.5207C34.6347 18.3472 34.2958 18.3996 34.164 18.4389C34.1623 18.4397 33.834 18.5412 33.2815 18.7123C33.189 18.4127 33.053 18.0443 32.859 17.6743C32.2336 16.4807 31.3175 15.8495 30.2106 15.8478C30.209 15.8478 30.2082 15.8478 30.2066 15.8478C30.1296 15.8478 30.0535 15.8552 29.9765 15.8617C29.9438 15.8225 29.911 15.784 29.8767 15.7463C29.3944 15.2306 28.7764 14.9792 28.0355 15.0013C26.6061 15.0423 25.1825 16.0746 24.0282 17.9084C23.2161 19.1986 22.598 20.8196 22.4228 22.0745C20.7814 22.5829 19.6336 22.9382 19.6082 22.9464C18.7798 23.2067 18.7536 23.2321 18.6455 24.0131C18.5653 24.6033 16.3975 41.3662 16.3975 41.3662L34.5643 44.5082L42.4381 42.5508C42.4381 42.5508 39.2257 20.831 39.2052 20.682ZM32.3719 18.9939C31.9536 19.1233 31.4779 19.2706 30.9622 19.4303C30.9515 18.7066 30.8656 17.6996 30.5283 16.8294C31.613 17.0349 32.1468 18.2621 32.3719 18.9939ZM30.0117 19.725C29.0596 20.0197 28.0207 20.3414 26.9786 20.664C27.2717 19.5416 27.8276 18.4241 28.5103 17.6914C28.7641 17.4188 29.1194 17.1151 29.5402 16.9416C29.9356 17.7668 30.0215 18.935 30.0117 19.725ZM28.0641 15.9526C28.3998 15.9453 28.6822 16.0189 28.9237 16.1778C28.5373 16.3783 28.164 16.6665 27.8136 17.0423C26.9057 18.0165 26.2099 19.5285 25.9323 20.9874C25.067 21.255 24.2205 21.5179 23.4412 21.7586C23.9332 19.4622 25.8578 16.0165 28.0641 15.9526Z" fill="#95BF47"/>
<path d="M38.9473 20.4421C38.8401 20.4331 36.7394 20.4012 36.7394 20.4012C36.7394 20.4012 34.9826 18.6951 34.809 18.5216C34.7444 18.4569 34.6568 18.4233 34.5651 18.4094L34.5659 44.5074L42.4389 42.5508C42.4389 42.5508 39.2265 20.8319 39.2061 20.6828C39.1856 20.5338 39.0546 20.4511 38.9473 20.4421Z" fill="#5E8E3E"/>
<path d="M30.2008 24.4905L29.2864 27.9116C29.2864 27.9116 28.2663 27.4474 27.0572 27.5236C25.2839 27.6357 25.2651 28.754 25.2832 29.0348C25.3798 30.5649 29.4051 30.8989 29.631 34.483C29.8087 37.3024 28.1353 39.2312 25.7244 39.3834C22.8304 39.566 21.2373 37.8591 21.2373 37.8591L21.8505 35.2509C21.8505 35.2509 23.4542 36.4608 24.7379 36.3798C25.5762 36.3266 25.8758 35.6446 25.8455 35.1624C25.7195 33.1666 22.4416 33.2844 22.2345 30.0049C22.0601 27.2452 23.8726 24.4487 27.8717 24.1966C29.4124 24.0975 30.2008 24.4905 30.2008 24.4905Z" fill="white"/>
<path d="M52.8067 31.6543C51.9014 31.163 51.4361 30.7489 51.4361 30.1797C51.4361 29.4554 52.0824 28.9901 53.0917 28.9901C54.2667 28.9901 55.3157 29.4814 55.3157 29.4814L56.1431 26.9464C56.1431 26.9464 55.3823 26.3512 53.1429 26.3512C50.0265 26.3512 47.8666 28.1359 47.8666 30.6449C47.8666 32.0675 48.8751 33.154 50.2205 33.9294C51.307 34.5498 51.6951 34.9899 51.6951 35.6362C51.6951 36.3085 51.1519 36.8517 50.1434 36.8517C48.6404 36.8517 47.2211 36.0755 47.2211 36.0755L46.3417 38.6105C46.3417 38.6105 47.6531 39.4899 49.8592 39.4899C53.0666 39.4899 55.3685 37.9122 55.3685 35.067C55.3677 33.5421 54.2041 32.4557 52.8067 31.6543Z" fill="black"/>
<path d="M65.5842 26.326C64.0064 26.326 62.7649 27.0763 61.8084 28.2139L61.7564 28.1879L63.127 21.0238H59.5575L56.092 39.2577H59.6614L60.851 33.0249C61.3163 30.671 62.5318 29.2232 63.6702 29.2232C64.4716 29.2232 64.7826 29.7664 64.7826 30.5427C64.7826 31.0339 64.7307 31.6291 64.6275 32.1204L63.2829 39.2585H66.8525L68.2488 31.8873C68.4042 31.111 68.508 30.1805 68.508 29.5593C68.5065 27.5416 67.4461 26.326 65.5842 26.326Z" fill="black"/>
<path d="M76.576 26.326C72.2821 26.326 69.438 30.2057 69.438 34.5247C69.438 37.2919 71.1445 39.5159 74.3521 39.5159C78.5678 39.5159 81.4129 35.7402 81.4129 31.3173C81.4129 28.7571 79.9124 26.326 76.576 26.326ZM74.8173 36.7754C73.6016 36.7754 73.0842 35.741 73.0842 34.4475C73.0842 32.4045 74.145 29.0681 76.0847 29.0681C77.3521 29.0681 77.7652 30.1545 77.7652 31.215C77.7652 33.413 76.7058 36.7754 74.8173 36.7754Z" fill="black"/>
<path d="M90.5427 26.326C88.1334 26.326 86.7662 28.447 86.7662 28.447H86.715L86.9221 26.5331H83.7666C83.6117 27.8266 83.3265 29.7916 83.0427 31.2662L80.5596 44.3269H84.1291L85.1112 39.0506H85.1894C85.1894 39.0506 85.9217 39.5159 87.2845 39.5159C91.4742 39.5159 94.2155 35.223 94.2155 30.8772C94.2155 28.473 93.1547 26.326 90.5427 26.326ZM87.1286 36.8266C86.2021 36.8266 85.6537 36.3094 85.6537 36.3094L86.2488 32.973C86.6629 30.7489 87.8265 29.2744 89.0683 29.2744C90.1547 29.2744 90.4906 30.2829 90.4906 31.2402C90.4906 33.5421 89.1199 36.8266 87.1286 36.8266Z" fill="black"/>
<path d="M99.3106 21.2049C98.173 21.2049 97.2676 22.1103 97.2676 23.2738C97.2676 24.3343 97.9399 25.0586 98.9486 25.0586H99.0003C100.113 25.0586 101.069 24.3083 101.095 22.9896C101.095 21.9551 100.397 21.2049 99.3106 21.2049Z" fill="black"/>
<path d="M94.3192 39.2576H97.8878L100.32 26.611H96.7242L94.3192 39.2576Z" fill="black"/>
<path d="M109.398 26.5851H106.915L107.044 25.9899C107.251 24.7744 107.975 23.6879 109.165 23.6879C109.8 23.6879 110.302 23.869 110.302 23.869L111.001 21.0758C111.001 21.0758 110.38 20.7656 109.061 20.7656C107.793 20.7656 106.527 21.1277 105.569 21.9552C104.354 22.9897 103.784 24.4894 103.5 25.9899L103.397 26.5851H101.742L101.224 29.2752H102.88L100.992 39.2585H104.562L106.45 29.2752H108.907L109.398 26.5851Z" fill="black"/>
<path d="M117.984 26.6111C117.984 26.6111 115.753 32.2324 114.751 35.3009H114.699C114.631 34.3127 113.82 26.6111 113.82 26.6111H110.069L112.217 38.2232C112.269 38.4814 112.243 38.6373 112.139 38.8184C111.725 39.6198 111.027 40.3961 110.199 40.9653C109.527 41.4565 108.777 41.7667 108.182 41.9737L109.165 45C109.889 44.8449 111.389 44.2497 112.656 43.0602C114.286 41.5344 115.786 39.1805 117.337 35.9732L121.708 26.6102H117.984V26.6111Z" fill="black"/>
</g>
<defs>
<clipPath id="clip0_775_176">
<rect width="105.738" height="30" fill="white" transform="translate(16.3975 15)"/>
</clipPath>
</defs>
</svg>
