<svg width="163" height="60" viewBox="0 0 163 60" fill="none" xmlns="http://www.w3.org/2000/svg">
<rect x="0.0113525" width="162.316" height="60" rx="10" fill="#A0CC4B" fill-opacity="0.18"/>
<g clip-path="url(#clip0_775_238)">
<path fill-rule="evenodd" clip-rule="evenodd" d="M67.4333 37.056C62.6175 40.61 55.6357 42.5 49.6233 42.5C41.1974 42.5 33.6095 39.3852 27.8672 34.2004C27.4169 33.7929 27.8185 33.2369 28.3604 33.5522C34.5552 37.1571 42.2169 39.3284 50.129 39.3284C55.4667 39.3284 61.3344 38.2203 66.7334 35.9301C67.5477 35.5854 68.2306 36.4669 67.4333 37.056Z" fill="#F79C34"/>
<path fill-rule="evenodd" clip-rule="evenodd" d="M69.4377 34.7674C68.8212 33.9789 65.3661 34.3938 63.8135 34.5798C63.3432 34.6367 63.2702 34.2255 63.6939 33.9279C66.4506 31.9915 70.9681 32.5503 71.493 33.1993C72.0216 33.8526 71.3535 38.3819 68.771 40.5428C68.3731 40.8751 67.9951 40.6979 68.1715 40.2593C68.7533 38.8072 70.0541 35.5573 69.4377 34.7674Z" fill="#F79C34"/>
<path fill-rule="evenodd" clip-rule="evenodd" d="M63.9228 20.2493V18.3682C63.9243 18.0818 64.1398 17.8913 64.3997 17.892L72.8322 17.8913C73.1017 17.8913 73.3187 18.0869 73.3187 18.366V19.9791C73.3158 20.2501 73.0877 20.603 72.6838 21.1633L68.3155 27.4002C69.9367 27.3625 71.6517 27.6054 73.1253 28.433C73.4575 28.6198 73.5469 28.8967 73.5727 29.1676V31.175C73.5727 31.4518 73.27 31.7715 72.9511 31.6054C70.3561 30.2455 66.912 30.0971 64.0416 31.6216C63.7486 31.7781 63.4422 31.4622 63.4422 31.1853V29.2769C63.4422 28.972 63.4481 28.4493 63.7559 27.9842L68.816 20.724L64.41 20.7233C64.1406 20.7233 63.9243 20.5313 63.9228 20.2493Z" fill="#333E47"/>
<path fill-rule="evenodd" clip-rule="evenodd" d="M33.1636 32.0003H30.5981C30.3537 31.9848 30.1588 31.8017 30.1389 31.567L30.1411 18.3999C30.1411 18.1371 30.3626 17.9267 30.6365 17.9267L33.0255 17.926C33.275 17.9385 33.4758 18.1275 33.4913 18.3682V20.0869H33.5401C34.1624 18.4243 35.3355 17.6484 36.9162 17.6484C38.5204 17.6484 39.5267 18.4243 40.245 20.0869C40.8674 18.4243 42.2804 17.6484 43.7887 17.6484C44.8666 17.6484 46.0397 18.0921 46.758 19.0895C47.5723 20.1984 47.4055 21.8048 47.4055 23.2179L47.4025 31.5271C47.4025 31.7892 47.1818 32.0003 46.9079 32.0003H44.3461C44.0877 31.9841 43.8854 31.7803 43.8854 31.5278L43.8847 24.5475C43.8847 23.9938 43.9327 22.6088 43.8123 22.0824C43.6211 21.195 43.0468 20.9455 42.3048 20.9455C41.6817 20.9455 41.035 21.3611 40.7714 22.0256C40.5079 22.6915 40.5322 23.7989 40.5322 24.5475V31.5271C40.5322 31.7892 40.3107 32.0003 40.0376 32.0003H37.475C37.2174 31.9841 37.0144 31.7803 37.0144 31.5278L37.0114 24.5475C37.0114 23.0791 37.2513 20.9189 35.4315 20.9189C33.5873 20.9189 33.6597 23.0237 33.6597 24.5475L33.6582 31.5271C33.6582 31.7892 33.4367 32.0003 33.1636 32.0003Z" fill="#333E47"/>
<path fill-rule="evenodd" clip-rule="evenodd" d="M80.601 20.3364C78.7096 20.3364 78.59 22.9122 78.59 24.5194C78.59 26.1267 78.5664 29.5626 80.5781 29.5626C82.5656 29.5626 82.6615 26.7918 82.6615 25.1019C82.6615 23.9938 82.6128 22.6634 82.2776 21.6107C81.9904 20.696 81.4153 20.3364 80.601 20.3364ZM80.5781 17.6484C84.3854 17.6484 86.4444 20.9189 86.4444 25.0746C86.4444 29.0908 84.1698 32.2779 80.5781 32.2779C76.8418 32.2779 74.8064 29.0081 74.8064 24.9358C74.8064 20.8347 76.8654 17.6484 80.5781 17.6484Z" fill="#333E47"/>
<path fill-rule="evenodd" clip-rule="evenodd" d="M91.3827 32.0003H88.8261C88.5699 31.9841 88.3661 31.7803 88.3661 31.5278L88.3617 18.3564C88.3839 18.115 88.5965 17.9267 88.8549 17.9267L91.2343 17.926C91.4587 17.9378 91.6433 18.0899 91.6906 18.2944V20.3084H91.7385C92.4576 18.507 93.4624 17.6484 95.2343 17.6484C96.3837 17.6484 97.5096 18.064 98.2279 19.2002C98.8983 20.253 98.8983 22.0256 98.8983 23.3006V31.5862C98.8702 31.8194 98.6606 32.0003 98.4066 32.0003H95.8352C95.5975 31.9856 95.4063 31.8106 95.3782 31.5862V24.4375C95.3782 22.9964 95.5465 20.8901 93.774 20.8901C93.1516 20.8901 92.5765 21.3058 92.2893 21.9429C91.9298 22.7469 91.8818 23.5501 91.8818 24.4375V31.5271C91.8773 31.7892 91.6559 32.0003 91.3827 32.0003Z" fill="#333E47"/>
<path fill-rule="evenodd" clip-rule="evenodd" d="M59.7863 31.9679C59.6172 32.1199 59.3728 32.1303 59.1809 32.0277C58.3289 31.3197 58.1761 30.9926 57.7103 30.3178C56.3024 31.7523 55.305 32.1827 53.4807 32.1827C51.3213 32.1827 49.641 30.8494 49.641 28.1842C49.641 26.1016 50.7698 24.6856 52.377 23.9916C53.7686 23.3803 55.7125 23.2696 57.2009 23.1027V22.7698C57.2009 22.1577 57.2488 21.4372 56.8886 20.9093C56.5763 20.4368 55.9768 20.2427 55.4489 20.2427C54.47 20.2427 53.6011 20.744 53.387 21.7827C53.3419 22.0138 53.1736 22.2434 52.9418 22.2552L50.4545 21.9857C50.2449 21.9377 50.0116 21.7694 50.0714 21.449C50.6362 18.4745 53.2925 17.5473 55.7066 17.5222H55.8971C57.1329 17.5377 58.7113 17.8765 59.6726 18.7986C60.921 19.9651 60.7999 21.5199 60.7999 23.2142V27.2105C60.7999 28.4131 61.2997 28.9402 61.7685 29.5877C61.9332 29.8217 61.9693 30.0986 61.7604 30.2698C61.2362 30.7091 60.3053 31.5175 59.7937 31.9738L59.7863 31.9679ZM57.2009 25.7132C57.2009 26.7129 57.2245 27.5456 56.721 28.4345C56.3127 29.1558 55.6645 29.6002 54.9447 29.6002C53.9613 29.6002 53.3855 28.8509 53.3855 27.7398C53.3855 25.5545 55.3448 25.1573 57.2009 25.1573V25.7132Z" fill="#333E47"/>
<path fill-rule="evenodd" clip-rule="evenodd" d="M26.1574 31.9679C25.9876 32.1199 25.7425 32.1303 25.5513 32.0277C24.6986 31.3197 24.5457 30.9926 24.0806 30.3178C22.672 31.7523 21.6754 32.1827 19.8511 32.1827C17.6917 32.1827 16.0114 30.8494 16.0114 28.1842C16.0114 26.1016 17.1387 24.6856 18.7474 23.9916C20.139 23.3803 22.0829 23.2696 23.5705 23.1027V22.7698C23.5705 22.1577 23.6192 21.4372 23.2589 20.9093C22.9467 20.4368 22.3464 20.2427 21.8193 20.2427C20.8404 20.2427 19.97 20.744 19.7573 21.7827C19.713 22.0138 19.544 22.2434 19.3114 22.2552L16.8249 21.9857C16.6145 21.9377 16.3812 21.7694 16.4418 21.449C17.0051 18.4745 19.6621 17.5473 22.077 17.5222H22.2674C23.5033 17.5377 25.0817 17.8765 26.043 18.7986C27.2906 19.9651 27.1703 21.5199 27.1703 23.2142V27.2105C27.1703 28.4131 27.6701 28.9402 28.1389 29.5877C28.3021 29.8217 28.3397 30.0986 28.1308 30.2698C27.6066 30.7091 26.6749 31.5175 26.1633 31.9738L26.1574 31.9679ZM23.5705 25.7132C23.5705 26.7129 23.5949 27.5456 23.0906 28.4345C22.6831 29.1558 22.0349 29.6002 21.3143 29.6002C20.331 29.6002 19.7551 28.8509 19.7551 27.7398C19.7551 25.5545 21.7152 25.1573 23.5705 25.1573V25.7132Z" fill="#333E47"/>
<path fill-rule="evenodd" clip-rule="evenodd" d="M133.967 36.7238C133.967 36.3901 133.967 36.0904 133.967 35.7567C133.967 35.4813 134.102 35.2915 134.389 35.3085C134.925 35.3846 135.683 35.4606 136.221 35.3499C136.924 35.2037 137.429 34.7054 137.727 34.0225C138.147 33.0612 138.425 32.2861 138.601 31.7774L133.264 18.5565C133.174 18.332 133.147 17.9156 133.595 17.9156H135.461C135.817 17.9156 135.962 18.1416 136.041 18.363L139.911 29.1019L143.604 18.363C143.679 18.143 143.831 17.9156 144.184 17.9156H145.943C146.388 17.9156 146.363 18.3313 146.274 18.5565L140.98 32.1901C140.295 34.0047 139.383 36.8951 137.327 37.3971C136.297 37.6666 134.997 37.5691 134.233 37.2494C134.041 37.1527 133.967 36.8943 133.967 36.7238Z" fill="#333E47"/>
<path fill-rule="evenodd" clip-rule="evenodd" d="M131.478 31.1949C131.478 31.4407 131.277 31.6423 131.029 31.6423H129.714C129.429 31.6423 129.235 31.437 129.199 31.1949L129.067 30.2994C128.462 30.811 127.72 31.2606 126.916 31.5736C125.368 32.1746 123.585 32.2742 122.073 31.3455C120.979 30.6744 120.399 29.3625 120.399 28.0093C120.399 26.9624 120.722 25.9244 121.437 25.1706C122.391 24.1407 123.775 23.635 125.446 23.635C126.455 23.635 127.899 23.7539 128.95 24.0972V22.2951C128.95 20.4627 128.178 19.6698 126.144 19.6698C124.589 19.6698 123.4 19.9045 121.745 20.4191C121.48 20.428 121.325 20.2264 121.325 19.9806V18.9529C121.325 18.7063 121.535 18.4679 121.763 18.3955C122.945 17.8802 124.62 17.5591 126.4 17.5C128.72 17.5 131.478 18.0234 131.478 21.5922V31.1949ZM128.95 28.5637V25.8447C128.067 25.6032 126.606 25.5028 126.04 25.5028C125.147 25.5028 124.168 25.714 123.658 26.264C123.276 26.6671 123.103 27.2459 123.103 27.8055C123.103 28.529 123.353 29.2547 123.938 29.6135C124.617 30.0749 125.671 30.0188 126.661 29.7375C127.613 29.4673 128.506 28.9897 128.95 28.5637Z" fill="#333E47"/>
<path fill-rule="evenodd" clip-rule="evenodd" d="M112.08 19.7104C114.999 19.7104 115.794 22.0057 115.794 24.6339C115.811 26.4057 115.485 27.9856 114.567 28.89C113.881 29.567 113.114 29.7516 111.959 29.7516C110.931 29.7516 109.58 29.2156 108.57 28.4692V20.9544C109.621 20.1467 110.962 19.7104 112.08 19.7104ZM108.122 37.1955H106.36C106.113 37.1955 105.912 36.994 105.912 36.7481C105.912 30.6279 105.912 24.5069 105.912 18.3867C105.912 18.1408 106.113 17.9393 106.36 17.9393H107.709C107.992 17.9393 108.186 18.1445 108.223 18.3867L108.364 19.3486C109.628 18.2272 111.254 17.5081 112.804 17.5081C117.144 17.5081 118.571 21.0843 118.571 24.803C118.571 28.7815 116.388 31.9782 112.696 31.9782C111.141 31.9782 109.687 31.4046 108.57 30.4079V36.7481C108.57 36.994 108.368 37.1955 108.122 37.1955Z" fill="#333E47"/>
</g>
<defs>
<clipPath id="clip0_775_238">
<rect width="130.316" height="25" fill="white" transform="translate(16.0114 17.5)"/>
</clipPath>
</defs>
</svg>
