<svg width="96" height="60" viewBox="0 0 96 60" fill="none" xmlns="http://www.w3.org/2000/svg">
<rect x="0.162842" width="94.9541" height="60" rx="10" fill="#A0CC4B" fill-opacity="0.18"/>
<g clip-path="url(#clip0_775_226)">
<path d="M45.9382 29.7134V37.0417H43.6133V18.944H49.7792C50.5152 18.9287 51.2469 19.0592 51.9322 19.3281C52.6175 19.597 53.2427 19.999 53.7719 20.5108C54.3063 20.9915 54.7317 21.5811 55.0194 22.2399C55.307 22.8986 55.4503 23.6114 55.4397 24.3302C55.455 25.0528 55.3139 25.7702 55.026 26.4331C54.7381 27.0961 54.3103 27.689 53.7719 28.1712C52.6937 29.1993 51.3628 29.7129 49.7792 29.7119H45.9382V29.7134ZM45.9382 21.1721V27.4896H49.837C50.2644 27.5023 50.6897 27.4256 51.0858 27.2645C51.4819 27.1034 51.84 26.8614 52.1373 26.5539C52.4329 26.2665 52.6679 25.9227 52.8284 25.5428C52.9889 25.163 53.0716 24.7548 53.0716 24.3424C53.0716 23.9301 52.9889 23.5219 52.8284 23.142C52.6679 22.7622 52.4329 22.4184 52.1373 22.1309C51.8438 21.817 51.4869 21.5691 51.0903 21.4035C50.6938 21.238 50.2665 21.1586 49.837 21.1707H45.9382V21.1721Z" fill="#5F6368"/>
<path d="M60.7969 24.2551C62.5153 24.2551 63.8717 24.7143 64.8661 25.6326C65.8606 26.551 66.3573 27.8102 66.3563 29.4102V37.0417H64.1326V35.3233H64.0315C63.0688 36.7385 61.7885 37.446 60.1904 37.446C58.8263 37.446 57.6851 37.0417 56.7667 36.2331C56.326 35.8619 55.9736 35.3971 55.7353 34.8725C55.497 34.3479 55.3787 33.7768 55.3891 33.2007C55.3891 31.9193 55.8734 30.9004 56.8418 30.1437C57.8102 29.387 59.1031 29.0078 60.7204 29.0058C62.1009 29.0058 63.2378 29.2585 64.1311 29.7639V29.2325C64.1338 28.8398 64.049 28.4514 63.8829 28.0955C63.7168 27.7396 63.4736 27.4251 63.1709 27.1748C62.5561 26.6202 61.7549 26.3175 60.9269 26.3272C59.6282 26.3272 58.6006 26.875 57.8439 27.9705L55.7963 26.681C56.9227 25.0637 58.5895 24.2551 60.7969 24.2551ZM57.7891 33.2512C57.7875 33.5471 57.8567 33.839 57.9908 34.1028C58.1249 34.3665 58.3201 34.5944 58.5602 34.7674C59.0743 35.1719 59.7125 35.3861 60.3666 35.3739C61.3477 35.3722 62.288 34.9818 62.9817 34.288C63.7518 33.5631 64.1369 32.7126 64.1369 31.7364C63.412 31.1588 62.4012 30.87 61.1045 30.87C60.1601 30.87 59.3727 31.0977 58.7421 31.553C58.1053 32.0151 57.7891 32.5768 57.7891 33.2512V33.2512Z" fill="#5F6368"/>
<path d="M79.1213 24.6594L71.3584 42.5H68.9584L71.8392 36.2576L66.7347 24.6594H69.2617L72.9511 33.5544H73.0016L76.59 24.6594H79.1213Z" fill="#5F6368"/>
<path d="M36.5435 28.1336C36.5443 27.4251 36.4844 26.7178 36.3644 26.0196H26.5596V30.0238H32.1754C32.0605 30.6633 31.8172 31.273 31.4604 31.816C31.1035 32.359 30.6404 32.8241 30.0989 33.1833V35.7825H33.4504C35.4128 33.9732 36.5435 31.2974 36.5435 28.1336Z" fill="#4285F4"/>
<path d="M26.5596 38.2936C29.3653 38.2936 31.7277 37.3724 33.4504 35.784L30.0989 33.1848C29.1661 33.8172 27.9647 34.1782 26.5596 34.1782C23.8478 34.1782 21.5461 32.3501 20.723 29.8867H17.2704V32.5653C18.1357 34.2872 19.4626 35.7348 21.103 36.7463C22.7433 37.7578 24.6325 38.2935 26.5596 38.2936V38.2936Z" fill="#34A853"/>
<path d="M20.723 29.8866C20.2879 28.5958 20.2879 27.1978 20.723 25.907V23.2283H17.2704C16.5424 24.6769 16.1633 26.2756 16.1633 27.8968C16.1633 29.518 16.5424 31.1167 17.2704 32.5652L20.723 29.8866Z" fill="#FBBC04"/>
<path d="M26.5596 21.6154C28.0423 21.5912 29.475 22.1514 30.548 23.1749L33.5154 20.2075C31.6337 18.4402 29.141 17.4699 26.5596 17.5C24.6325 17.5001 22.7433 18.0358 21.103 19.0473C19.4626 20.0589 18.1357 21.5064 17.2704 23.2284L20.723 25.907C21.5461 23.4435 23.8478 21.6154 26.5596 21.6154Z" fill="#EA4335"/>
</g>
<defs>
<clipPath id="clip0_775_226">
<rect width="62.9541" height="25" fill="white" transform="translate(16.1628 17.5)"/>
</clipPath>
</defs>
</svg>
