<svg width="95" height="60" viewBox="0 0 95 60" fill="none" xmlns="http://www.w3.org/2000/svg">
<rect x="0.564392" width="93.5984" height="60" rx="10" fill="#A0CC4B" fill-opacity="0.18"/>
<g clip-path="url(#clip0_775_223)">
<path d="M56.6764 20.0308C52.307 20.0308 48.4024 22.2955 48.4024 26.4798C48.4024 31.2783 55.3274 31.6098 55.3274 34.0204C55.3274 35.0354 54.1642 35.944 52.1775 35.944C49.3579 35.944 47.2506 34.6744 47.2506 34.6744L46.3489 38.8968C46.3489 38.8968 48.7765 39.9692 51.9996 39.9692C56.7767 39.9692 60.5357 37.5933 60.5357 33.3375C60.5357 28.267 53.5817 27.9454 53.5817 25.7079C53.5817 24.9128 54.5366 24.0416 56.5177 24.0416C58.7529 24.0416 60.5765 24.9649 60.5765 24.9649L61.459 20.8868C61.459 20.8868 59.4747 20.0308 56.6764 20.0308V20.0308ZM16.701 20.3386L16.5952 20.9542C16.5952 20.9542 18.4334 21.2906 20.089 21.9617C22.2207 22.7312 22.3725 23.1792 22.7316 24.5706L26.6437 39.6518H31.888L39.9673 20.3386H34.735L29.5436 33.4698L27.4252 22.3392C27.2309 21.0653 26.2469 20.3386 25.0423 20.3386H16.701V20.3386ZM42.0712 20.3386L37.9667 39.6518H42.9561L47.0462 20.3386H42.0712V20.3386ZM69.8989 20.3386C68.6958 20.3386 68.0583 20.9827 67.5906 22.1083L60.2808 39.6518H65.5131L66.5254 36.7279H72.8998L73.5153 39.6518H78.1321L74.1045 20.3386H69.8989V20.3386ZM70.5794 25.5564L72.1303 32.8037H67.9753L70.5794 25.5564V25.5564Z" fill="#1434CB"/>
</g>
<defs>
<clipPath id="clip0_775_223">
<rect width="61.5984" height="20" fill="white" transform="translate(16.5644 20)"/>
</clipPath>
</defs>
</svg>
