<svg width="28" height="28" viewBox="0 0 28 28" fill="none" xmlns="http://www.w3.org/2000/svg">
<path d="M2.625 5.83334C2.625 5.35034 3.017 4.95834 3.5 4.95834H18.6667C19.1497 4.95834 19.5417 5.35034 19.5417 5.83334C19.5417 6.31634 19.1497 6.70834 18.6667 6.70834H3.5C3.017 6.70834 2.625 6.31634 2.625 5.83334ZM24.5 13.125H3.5C3.017 13.125 2.625 13.517 2.625 14C2.625 14.483 3.017 14.875 3.5 14.875H24.5C24.983 14.875 25.375 14.483 25.375 14C25.375 13.517 24.983 13.125 24.5 13.125ZM14 21.2917H3.5C3.017 21.2917 2.625 21.6837 2.625 22.1667C2.625 22.6497 3.017 23.0417 3.5 23.0417H14C14.483 23.0417 14.875 22.6497 14.875 22.1667C14.875 21.6837 14.483 21.2917 14 21.2917Z" fill="white"/>
</svg>
