<svg width="24" height="25" viewBox="0 0 24 25" fill="none" xmlns="http://www.w3.org/2000/svg">
<path d="M21.5301 20.969L16.8361 16.275C18.0301 14.844 18.7501 13.005 18.7501 11C18.7501 6.451 15.0491 2.75 10.5001 2.75C5.95112 2.75 2.25012 6.451 2.25012 11C2.25012 15.549 5.95112 19.25 10.5001 19.25C12.5051 19.25 14.3441 18.5301 15.7751 17.3361L20.4691 22.03C20.6151 22.176 20.8071 22.25 20.9991 22.25C21.1911 22.25 21.3831 22.177 21.5291 22.03C21.8231 21.737 21.8231 21.262 21.5301 20.969ZM3.75012 11C3.75012 7.278 6.77812 4.25 10.5001 4.25C14.2221 4.25 17.2501 7.278 17.2501 11C17.2501 14.722 14.2221 17.75 10.5001 17.75C6.77812 17.75 3.75012 14.722 3.75012 11Z" fill="#41416E"/>
</svg>
