<svg width="315" height="77" viewBox="0 0 315 77" fill="none" xmlns="http://www.w3.org/2000/svg">
<path fill-rule="evenodd" clip-rule="evenodd" d="M4.95136 30.8158H25.3796L45.8078 0H25.3796L4.95136 30.8158ZM45.8062 61.6322H25.378L4.94977 30.8164H25.378L45.8062 61.6322Z" fill="white"/>
<path fill-rule="evenodd" clip-rule="evenodd" d="M40.8576 30.8158H20.4294L0.0011722 0H20.4294L40.8576 30.8158ZM0 61.6323H20.4282L40.8564 30.8165H20.4282L0 61.6323Z" fill="#A0D831"/>
<path d="M71.1816 17.4121H61.0391V12.5254H86.8965V17.4121H76.7539V40H71.1816V17.4121ZM92.2051 10.8555H97.4082V20.8398C98.498 20.2422 99.7109 19.7676 101.047 19.416C102.395 19.0645 103.807 18.8887 105.283 18.8887C106.994 18.8887 108.529 19.1406 109.889 19.6445C111.26 20.1484 112.42 20.875 113.369 21.8242C114.318 22.7617 115.045 23.9043 115.549 25.252C116.064 26.5996 116.322 28.1172 116.322 29.8047V40H111.137V30.0156C111.137 29.0312 110.979 28.1348 110.662 27.3262C110.346 26.5059 109.883 25.8027 109.273 25.2168C108.664 24.6309 107.92 24.1797 107.041 23.8633C106.174 23.5352 105.189 23.3711 104.088 23.3711C102.764 23.3711 101.533 23.582 100.396 24.0039C99.2598 24.4258 98.2637 24.959 97.4082 25.6035V40H92.2051V10.8555ZM121.174 29.5586C121.174 28.1523 121.461 26.8105 122.035 25.5332C122.609 24.2441 123.436 23.1074 124.514 22.123C125.592 21.1387 126.91 20.3535 128.469 19.7676C130.039 19.1816 131.82 18.8887 133.812 18.8887C135.793 18.8887 137.574 19.1875 139.156 19.7852C140.75 20.3711 142.098 21.1797 143.199 22.2109C144.312 23.2422 145.162 24.4551 145.748 25.8496C146.346 27.2441 146.645 28.7383 146.645 30.332C146.645 30.5312 146.639 30.748 146.627 30.9824C146.627 31.2051 146.615 31.4102 146.592 31.5977H126.975C127.197 32.2188 127.555 32.7871 128.047 33.3027C128.551 33.8184 129.178 34.2637 129.928 34.6387C130.678 35.0137 131.545 35.3066 132.529 35.5176C133.514 35.7168 134.604 35.8164 135.799 35.8164C136.994 35.8164 138.184 35.6934 139.367 35.4473C140.551 35.1895 141.682 34.8672 142.76 34.4805L144.518 38.4531C143.838 38.7695 143.146 39.0508 142.443 39.2969C141.752 39.5312 141.025 39.7305 140.264 39.8945C139.514 40.0469 138.723 40.1641 137.891 40.2461C137.07 40.3281 136.203 40.3691 135.289 40.3691C132.957 40.3691 130.912 40.0879 129.154 39.5254C127.396 38.9629 125.926 38.1953 124.742 37.2227C123.559 36.25 122.668 35.1074 122.07 33.7949C121.473 32.4824 121.174 31.0703 121.174 29.5586ZM141.125 27.5371C140.938 26.9629 140.645 26.4297 140.246 25.9375C139.859 25.4336 139.373 25 138.787 24.6367C138.201 24.2617 137.521 23.9688 136.748 23.7578C135.975 23.5469 135.125 23.4414 134.199 23.4414C133.215 23.4414 132.318 23.5527 131.51 23.7754C130.701 23.998 129.992 24.2969 129.383 24.6719C128.773 25.0469 128.264 25.4805 127.854 25.9727C127.455 26.4648 127.162 26.9863 126.975 27.5371H141.125ZM164.855 12.5254H189.43V17.4121H170.428V24.6016H186.564V29.1895H170.428V40H164.855V12.5254ZM194.158 19.2402H199.344V29.3652C199.344 30.3262 199.449 31.2051 199.66 32.002C199.871 32.7871 200.229 33.4609 200.732 34.0234C201.248 34.5859 201.928 35.0254 202.771 35.3418C203.627 35.6465 204.688 35.7988 205.953 35.7988C206.551 35.7988 207.154 35.7344 207.764 35.6055C208.385 35.4766 208.977 35.3008 209.539 35.0781C210.102 34.8438 210.623 34.5684 211.104 34.252C211.596 33.9355 212.018 33.5898 212.369 33.2148V19.2402H217.572V40H212.369V38.2246C211.092 38.9863 209.809 39.5312 208.52 39.8594C207.23 40.1875 206.006 40.3516 204.846 40.3516C202.947 40.3516 201.318 40.123 199.959 39.666C198.611 39.209 197.504 38.5469 196.637 37.6797C195.781 36.8008 195.154 35.7285 194.756 34.4629C194.357 33.1855 194.158 31.7324 194.158 30.1035V19.2402ZM227.311 23.1602H222.301V19.2578H227.311V12.8066H232.514V19.2578H237.523V23.1602H232.514V40H227.311V23.1602ZM242.146 19.2402H247.332V29.3652C247.332 30.3262 247.438 31.2051 247.648 32.002C247.859 32.7871 248.217 33.4609 248.721 34.0234C249.236 34.5859 249.916 35.0254 250.76 35.3418C251.615 35.6465 252.676 35.7988 253.941 35.7988C254.539 35.7988 255.143 35.7344 255.752 35.6055C256.373 35.4766 256.965 35.3008 257.527 35.0781C258.09 34.8438 258.611 34.5684 259.092 34.252C259.584 33.9355 260.006 33.5898 260.357 33.2148V19.2402H265.561V40H260.357V38.2246C259.08 38.9863 257.797 39.5312 256.508 39.8594C255.219 40.1875 253.994 40.3516 252.834 40.3516C250.936 40.3516 249.307 40.123 247.947 39.666C246.6 39.209 245.492 38.5469 244.625 37.6797C243.77 36.8008 243.143 35.7285 242.744 34.4629C242.346 33.1855 242.146 31.7324 242.146 30.1035V19.2402ZM272.17 19.2578H277.373V22.2461C278.521 21.3906 279.734 20.6523 281.012 20.0312C282.289 19.4102 283.561 18.9355 284.826 18.6074L286.355 23.3711C284.352 23.5703 282.588 24.0215 281.064 24.7246C279.553 25.416 278.322 26.3945 277.373 27.6602V40H272.17V19.2578ZM289.256 29.5586C289.256 28.1523 289.543 26.8105 290.117 25.5332C290.691 24.2441 291.518 23.1074 292.596 22.123C293.674 21.1387 294.992 20.3535 296.551 19.7676C298.121 19.1816 299.902 18.8887 301.895 18.8887C303.875 18.8887 305.656 19.1875 307.238 19.7852C308.832 20.3711 310.18 21.1797 311.281 22.2109C312.395 23.2422 313.244 24.4551 313.83 25.8496C314.428 27.2441 314.727 28.7383 314.727 30.332C314.727 30.5312 314.721 30.748 314.709 30.9824C314.709 31.2051 314.697 31.4102 314.674 31.5977H295.057C295.279 32.2188 295.637 32.7871 296.129 33.3027C296.633 33.8184 297.26 34.2637 298.01 34.6387C298.76 35.0137 299.627 35.3066 300.611 35.5176C301.596 35.7168 302.686 35.8164 303.881 35.8164C305.076 35.8164 306.266 35.6934 307.449 35.4473C308.633 35.1895 309.764 34.8672 310.842 34.4805L312.6 38.4531C311.92 38.7695 311.229 39.0508 310.525 39.2969C309.834 39.5312 309.107 39.7305 308.346 39.8945C307.596 40.0469 306.805 40.1641 305.973 40.2461C305.152 40.3281 304.285 40.3691 303.371 40.3691C301.039 40.3691 298.994 40.0879 297.236 39.5254C295.479 38.9629 294.008 38.1953 292.824 37.2227C291.641 36.25 290.75 35.1074 290.152 33.7949C289.555 32.4824 289.256 31.0703 289.256 29.5586ZM309.207 27.5371C309.02 26.9629 308.727 26.4297 308.328 25.9375C307.941 25.4336 307.455 25 306.869 24.6367C306.283 24.2617 305.604 23.9688 304.83 23.7578C304.057 23.5469 303.207 23.4414 302.281 23.4414C301.297 23.4414 300.4 23.5527 299.592 23.7754C298.783 23.998 298.074 24.2969 297.465 24.6719C296.855 25.0469 296.346 25.4805 295.936 25.9727C295.537 26.4648 295.244 26.9863 295.057 27.5371H309.207Z" fill="white"/>
<path d="M70.7344 50.7891H81.1328V52.9609H73.2109V55.3984H80.2266V57.4375H73.2109V60.8359H81.2969V63H70.7344V50.7891ZM82.4844 53.7734H85.1641L87.5625 59.3203L88.1875 60.875L88.8125 59.3203L91.2109 53.7734H93.8906L89.5234 63H86.8516L82.4844 53.7734ZM95.0703 58.3594C95.0703 57.7344 95.1979 57.138 95.4531 56.5703C95.7083 55.9974 96.0755 55.4922 96.5547 55.0547C97.0339 54.6172 97.6198 54.2682 98.3125 54.0078C99.0104 53.7474 99.8021 53.6172 100.688 53.6172C101.568 53.6172 102.359 53.75 103.062 54.0156C103.771 54.276 104.37 54.6354 104.859 55.0938C105.354 55.5521 105.732 56.0911 105.992 56.7109C106.258 57.3307 106.391 57.9948 106.391 58.7031C106.391 58.7917 106.388 58.888 106.383 58.9922C106.383 59.0911 106.378 59.1823 106.367 59.2656H97.6484C97.7474 59.5417 97.9062 59.7943 98.125 60.0234C98.349 60.2526 98.6276 60.4505 98.9609 60.6172C99.2943 60.7839 99.6797 60.9141 100.117 61.0078C100.555 61.0964 101.039 61.1406 101.57 61.1406C102.102 61.1406 102.63 61.0859 103.156 60.9766C103.682 60.862 104.185 60.7188 104.664 60.5469L105.445 62.3125C105.143 62.4531 104.836 62.5781 104.523 62.6875C104.216 62.7917 103.893 62.8802 103.555 62.9531C103.221 63.0208 102.87 63.0729 102.5 63.1094C102.135 63.1458 101.75 63.1641 101.344 63.1641C100.307 63.1641 99.3984 63.0391 98.6172 62.7891C97.8359 62.5391 97.1823 62.1979 96.6562 61.7656C96.1302 61.3333 95.7344 60.8255 95.4688 60.2422C95.2031 59.6589 95.0703 59.0312 95.0703 58.3594ZM103.938 57.4609C103.854 57.2057 103.724 56.9688 103.547 56.75C103.375 56.526 103.159 56.3333 102.898 56.1719C102.638 56.0052 102.336 55.875 101.992 55.7812C101.648 55.6875 101.271 55.6406 100.859 55.6406C100.422 55.6406 100.023 55.6901 99.6641 55.7891C99.3047 55.888 98.9896 56.0208 98.7188 56.1875C98.4479 56.3542 98.2214 56.5469 98.0391 56.7656C97.862 56.9844 97.7318 57.2161 97.6484 57.4609H103.938ZM108.883 53.7812H111.195V55.1094C111.706 54.7292 112.245 54.401 112.812 54.125C113.38 53.849 113.945 53.638 114.508 53.4922L115.188 55.6094C114.297 55.6979 113.513 55.8984 112.836 56.2109C112.164 56.5182 111.617 56.9531 111.195 57.5156V63H108.883V53.7812ZM118.016 64.1562C118.255 64.3125 118.516 64.4505 118.797 64.5703C119.078 64.6901 119.37 64.7891 119.672 64.8672C119.979 64.9453 120.292 65.0026 120.609 65.0391C120.927 65.0807 121.242 65.1016 121.555 65.1016C122.617 65.1016 123.435 64.8724 124.008 64.4141C124.586 63.9609 124.875 63.2786 124.875 62.3672V62.0547C124.672 62.1953 124.443 62.3255 124.188 62.4453C123.938 62.5599 123.667 62.6589 123.375 62.7422C123.089 62.8255 122.784 62.8906 122.461 62.9375C122.143 62.9792 121.82 63 121.492 63C120.789 63 120.159 62.8984 119.602 62.6953C119.049 62.487 118.581 62.1849 118.195 61.7891C117.815 61.388 117.523 60.8958 117.32 60.3125C117.117 59.7292 117.016 59.0625 117.016 58.3125V53.7812H119.32V57.6719C119.32 58.7865 119.531 59.6094 119.953 60.1406C120.38 60.6667 121.052 60.9297 121.969 60.9297C122.615 60.9297 123.185 60.8177 123.68 60.5938C124.18 60.3646 124.578 60.0729 124.875 59.7188V53.7812H127.188V61.9453C127.188 62.8255 127.062 63.5885 126.812 64.2344C126.562 64.8854 126.198 65.4245 125.719 65.8516C125.245 66.2786 124.661 66.5964 123.969 66.8047C123.276 67.0182 122.49 67.125 121.609 67.125C120.75 67.125 119.948 67.0339 119.203 66.8516C118.458 66.6693 117.776 66.4219 117.156 66.1094L118.016 64.1562ZM131.57 55.5156H129.344V53.7812H131.57V50.9141H133.883V53.7812H136.109V55.5156H133.883V63H131.57V55.5156ZM138.164 50.0469H140.477V54.4844C140.961 54.2188 141.5 54.0078 142.094 53.8516C142.693 53.6953 143.32 53.6172 143.977 53.6172C144.737 53.6172 145.419 53.7292 146.023 53.9531C146.633 54.1771 147.148 54.5 147.57 54.9219C147.992 55.3385 148.315 55.8464 148.539 56.4453C148.768 57.0443 148.883 57.7188 148.883 58.4688V63H146.578V58.5625C146.578 58.125 146.508 57.7266 146.367 57.3672C146.227 57.0026 146.021 56.6901 145.75 56.4297C145.479 56.1693 145.148 55.9688 144.758 55.8281C144.372 55.6823 143.935 55.6094 143.445 55.6094C142.857 55.6094 142.31 55.7031 141.805 55.8906C141.299 56.0781 140.857 56.3151 140.477 56.6016V63H138.164V50.0469ZM152.695 52.5234C152.466 52.5234 152.258 52.4922 152.07 52.4297C151.888 52.362 151.732 52.2734 151.602 52.1641C151.471 52.0495 151.37 51.9193 151.297 51.7734C151.229 51.6224 151.195 51.4635 151.195 51.2969C151.195 51.125 151.229 50.9661 151.297 50.8203C151.37 50.6693 151.471 50.5391 151.602 50.4297C151.732 50.3203 151.888 50.2344 152.07 50.1719C152.258 50.1042 152.466 50.0703 152.695 50.0703C152.93 50.0703 153.138 50.1042 153.32 50.1719C153.508 50.2344 153.667 50.3203 153.797 50.4297C153.927 50.5391 154.026 50.6693 154.094 50.8203C154.167 50.9661 154.203 51.125 154.203 51.2969C154.203 51.4635 154.167 51.6224 154.094 51.7734C154.026 51.9193 153.927 52.0495 153.797 52.1641C153.667 52.2734 153.508 52.362 153.32 52.4297C153.138 52.4922 152.93 52.5234 152.695 52.5234ZM151.539 53.7812H153.852V63H151.539V53.7812ZM156.82 53.7812H159.133V54.5625C159.747 54.2135 160.333 53.9688 160.891 53.8281C161.453 53.6875 162.003 53.6172 162.539 53.6172C163.242 53.6172 163.893 53.7214 164.492 53.9297C165.091 54.1328 165.609 54.4375 166.047 54.8438C166.484 55.25 166.826 55.7578 167.07 56.3672C167.32 56.9714 167.445 57.6719 167.445 58.4688V63H165.141V58.8438C165.141 58.3385 165.068 57.888 164.922 57.4922C164.781 57.0911 164.576 56.7552 164.305 56.4844C164.039 56.2083 163.714 56 163.328 55.8594C162.948 55.7135 162.521 55.6406 162.047 55.6406C161.797 55.6406 161.539 55.6667 161.273 55.7188C161.013 55.7708 160.755 55.8464 160.5 55.9453C160.25 56.0391 160.008 56.1589 159.773 56.3047C159.539 56.4453 159.326 56.6068 159.133 56.7891V63H156.82V53.7812ZM171.734 64.5625C172.026 64.6667 172.323 64.7526 172.625 64.8203C172.927 64.8932 173.219 64.9505 173.5 64.9922C173.786 65.0391 174.06 65.0703 174.32 65.0859C174.581 65.1068 174.812 65.1172 175.016 65.1172C175.63 65.1172 176.164 65.0417 176.617 64.8906C177.076 64.7448 177.456 64.5469 177.758 64.2969C178.065 64.0469 178.294 63.7552 178.445 63.4219C178.596 63.0938 178.672 62.7448 178.672 62.375V61.9766C178.474 62.112 178.242 62.2422 177.977 62.3672C177.711 62.4922 177.419 62.6016 177.102 62.6953C176.784 62.7891 176.445 62.8646 176.086 62.9219C175.732 62.9792 175.365 63.0078 174.984 63.0078C174.229 63.0078 173.531 62.8958 172.891 62.6719C172.25 62.4427 171.695 62.125 171.227 61.7188C170.758 61.3073 170.391 60.8151 170.125 60.2422C169.865 59.6693 169.734 59.0339 169.734 58.3359C169.734 57.6224 169.872 56.9766 170.148 56.3984C170.424 55.8151 170.805 55.3177 171.289 54.9062C171.779 54.4948 172.357 54.1771 173.023 53.9531C173.69 53.7292 174.414 53.6172 175.195 53.6172C175.529 53.6172 175.859 53.638 176.188 53.6797C176.516 53.7214 176.828 53.7786 177.125 53.8516C177.427 53.9245 177.708 54.013 177.969 54.1172C178.234 54.2161 178.469 54.3255 178.672 54.4453V53.7812H180.984V61.9453C180.984 62.7839 180.857 63.526 180.602 64.1719C180.346 64.8177 179.971 65.3594 179.477 65.7969C178.987 66.2396 178.378 66.5729 177.648 66.7969C176.919 67.026 176.083 67.1406 175.141 67.1406C174.802 67.1406 174.451 67.125 174.086 67.0938C173.721 67.0677 173.354 67.026 172.984 66.9688C172.62 66.9167 172.258 66.8516 171.898 66.7734C171.544 66.7005 171.203 66.6146 170.875 66.5156L171.734 64.5625ZM172.164 58.3125C172.164 58.6823 172.237 59.0312 172.383 59.3594C172.534 59.6823 172.747 59.9661 173.023 60.2109C173.299 60.4505 173.633 60.6406 174.023 60.7812C174.414 60.9167 174.854 60.9844 175.344 60.9844C175.661 60.9844 175.977 60.9557 176.289 60.8984C176.607 60.8359 176.909 60.75 177.195 60.6406C177.487 60.5312 177.758 60.3984 178.008 60.2422C178.263 60.0859 178.484 59.9115 178.672 59.7188V56.6797C178.438 56.4922 178.19 56.3333 177.93 56.2031C177.669 56.0729 177.404 55.9661 177.133 55.8828C176.862 55.7995 176.589 55.7396 176.312 55.7031C176.036 55.6615 175.768 55.6406 175.508 55.6406C174.977 55.6406 174.503 55.7109 174.086 55.8516C173.674 55.9922 173.326 56.1849 173.039 56.4297C172.758 56.6693 172.542 56.9505 172.391 57.2734C172.24 57.5964 172.164 57.9427 172.164 58.3125ZM190.148 52.5234C189.919 52.5234 189.711 52.4922 189.523 52.4297C189.341 52.362 189.185 52.2734 189.055 52.1641C188.924 52.0495 188.823 51.9193 188.75 51.7734C188.682 51.6224 188.648 51.4635 188.648 51.2969C188.648 51.125 188.682 50.9661 188.75 50.8203C188.823 50.6693 188.924 50.5391 189.055 50.4297C189.185 50.3203 189.341 50.2344 189.523 50.1719C189.711 50.1042 189.919 50.0703 190.148 50.0703C190.383 50.0703 190.591 50.1042 190.773 50.1719C190.961 50.2344 191.12 50.3203 191.25 50.4297C191.38 50.5391 191.479 50.6693 191.547 50.8203C191.62 50.9661 191.656 51.125 191.656 51.2969C191.656 51.4635 191.62 51.6224 191.547 51.7734C191.479 51.9193 191.38 52.0495 191.25 52.1641C191.12 52.2734 190.961 52.362 190.773 52.4297C190.591 52.4922 190.383 52.5234 190.148 52.5234ZM188.992 53.7812H191.305V63H188.992V53.7812ZM194.273 53.7812H196.586V54.5625C197.201 54.2135 197.786 53.9688 198.344 53.8281C198.906 53.6875 199.456 53.6172 199.992 53.6172C200.695 53.6172 201.346 53.7214 201.945 53.9297C202.544 54.1328 203.062 54.4375 203.5 54.8438C203.938 55.25 204.279 55.7578 204.523 56.3672C204.773 56.9714 204.898 57.6719 204.898 58.4688V63H202.594V58.8438C202.594 58.3385 202.521 57.888 202.375 57.4922C202.234 57.0911 202.029 56.7552 201.758 56.4844C201.492 56.2083 201.167 56 200.781 55.8594C200.401 55.7135 199.974 55.6406 199.5 55.6406C199.25 55.6406 198.992 55.6667 198.727 55.7188C198.466 55.7708 198.208 55.8464 197.953 55.9453C197.703 56.0391 197.461 56.1589 197.227 56.3047C196.992 56.4453 196.779 56.6068 196.586 56.7891V63H194.273V53.7812ZM212.5 58.3906C212.5 57.7292 212.633 57.1094 212.898 56.5312C213.169 55.9531 213.552 55.4479 214.047 55.0156C214.547 54.5833 215.148 54.2422 215.852 53.9922C216.56 53.7422 217.354 53.6172 218.234 53.6172C219.115 53.6172 219.906 53.7422 220.609 53.9922C221.318 54.2422 221.919 54.5833 222.414 55.0156C222.914 55.4479 223.297 55.9531 223.562 56.5312C223.833 57.1094 223.969 57.7292 223.969 58.3906C223.969 59.0521 223.833 59.6719 223.562 60.25C223.297 60.8281 222.914 61.3333 222.414 61.7656C221.919 62.1979 221.318 62.5391 220.609 62.7891C219.906 63.0391 219.115 63.1641 218.234 63.1641C217.354 63.1641 216.56 63.0391 215.852 62.7891C215.148 62.5391 214.547 62.1979 214.047 61.7656C213.552 61.3333 213.169 60.8281 212.898 60.25C212.633 59.6719 212.5 59.0521 212.5 58.3906ZM214.93 58.3906C214.93 58.7604 215.003 59.112 215.148 59.4453C215.299 59.7734 215.516 60.0651 215.797 60.3203C216.083 60.5703 216.43 60.7708 216.836 60.9219C217.247 61.0677 217.714 61.1406 218.234 61.1406C218.755 61.1406 219.219 61.0677 219.625 60.9219C220.036 60.7708 220.383 60.5703 220.664 60.3203C220.951 60.0651 221.167 59.7734 221.312 59.4453C221.464 59.112 221.539 58.7604 221.539 58.3906C221.539 58.0208 221.464 57.6693 221.312 57.3359C221.167 57.0026 220.951 56.7109 220.664 56.4609C220.383 56.2057 220.036 56.0052 219.625 55.8594C219.219 55.7083 218.755 55.6328 218.234 55.6328C217.714 55.6328 217.247 55.7083 216.836 55.8594C216.43 56.0052 216.083 56.2057 215.797 56.4609C215.516 56.7109 215.299 57.0026 215.148 57.3359C215.003 57.6693 214.93 58.0208 214.93 58.3906ZM226.305 53.7812H228.617V54.5625C229.232 54.2135 229.818 53.9688 230.375 53.8281C230.938 53.6875 231.487 53.6172 232.023 53.6172C232.727 53.6172 233.378 53.7214 233.977 53.9297C234.576 54.1328 235.094 54.4375 235.531 54.8438C235.969 55.25 236.31 55.7578 236.555 56.3672C236.805 56.9714 236.93 57.6719 236.93 58.4688V63H234.625V58.8438C234.625 58.3385 234.552 57.888 234.406 57.4922C234.266 57.0911 234.06 56.7552 233.789 56.4844C233.523 56.2083 233.198 56 232.812 55.8594C232.432 55.7135 232.005 55.6406 231.531 55.6406C231.281 55.6406 231.023 55.6667 230.758 55.7188C230.497 55.7708 230.24 55.8464 229.984 55.9453C229.734 56.0391 229.492 56.1589 229.258 56.3047C229.023 56.4453 228.81 56.6068 228.617 56.7891V63H226.305V53.7812ZM239.336 58.3594C239.336 57.7344 239.464 57.138 239.719 56.5703C239.974 55.9974 240.341 55.4922 240.82 55.0547C241.299 54.6172 241.885 54.2682 242.578 54.0078C243.276 53.7474 244.068 53.6172 244.953 53.6172C245.833 53.6172 246.625 53.75 247.328 54.0156C248.036 54.276 248.635 54.6354 249.125 55.0938C249.62 55.5521 249.997 56.0911 250.258 56.7109C250.523 57.3307 250.656 57.9948 250.656 58.7031C250.656 58.7917 250.654 58.888 250.648 58.9922C250.648 59.0911 250.643 59.1823 250.633 59.2656H241.914C242.013 59.5417 242.172 59.7943 242.391 60.0234C242.615 60.2526 242.893 60.4505 243.227 60.6172C243.56 60.7839 243.945 60.9141 244.383 61.0078C244.82 61.0964 245.305 61.1406 245.836 61.1406C246.367 61.1406 246.896 61.0859 247.422 60.9766C247.948 60.862 248.451 60.7188 248.93 60.5469L249.711 62.3125C249.409 62.4531 249.102 62.5781 248.789 62.6875C248.482 62.7917 248.159 62.8802 247.82 62.9531C247.487 63.0208 247.135 63.0729 246.766 63.1094C246.401 63.1458 246.016 63.1641 245.609 63.1641C244.573 63.1641 243.664 63.0391 242.883 62.7891C242.102 62.5391 241.448 62.1979 240.922 61.7656C240.396 61.3333 240 60.8255 239.734 60.2422C239.469 59.6589 239.336 59.0312 239.336 58.3594ZM248.203 57.4609C248.12 57.2057 247.99 56.9688 247.812 56.75C247.641 56.526 247.424 56.3333 247.164 56.1719C246.904 56.0052 246.602 55.875 246.258 55.7812C245.914 55.6875 245.536 55.6406 245.125 55.6406C244.688 55.6406 244.289 55.6901 243.93 55.7891C243.57 55.888 243.255 56.0208 242.984 56.1875C242.714 56.3542 242.487 56.5469 242.305 56.7656C242.128 56.9844 241.997 57.2161 241.914 57.4609H248.203Z" fill="#A3A3A3"/>
</svg>
