<svg width="28" height="29" viewBox="0 0 28 29" fill="none" xmlns="http://www.w3.org/2000/svg">
<path d="M2.625 6.33334C2.625 5.85034 3.017 5.45834 3.5 5.45834H18.6667C19.1497 5.45834 19.5417 5.85034 19.5417 6.33334C19.5417 6.81634 19.1497 7.20834 18.6667 7.20834H3.5C3.017 7.20834 2.625 6.81634 2.625 6.33334ZM24.5 13.625H3.5C3.017 13.625 2.625 14.017 2.625 14.5C2.625 14.983 3.017 15.375 3.5 15.375H24.5C24.983 15.375 25.375 14.983 25.375 14.5C25.375 14.017 24.983 13.625 24.5 13.625ZM14 21.7917H3.5C3.017 21.7917 2.625 22.1837 2.625 22.6667C2.625 23.1497 3.017 23.5417 3.5 23.5417H14C14.483 23.5417 14.875 23.1497 14.875 22.6667C14.875 22.1837 14.483 21.7917 14 21.7917Z" fill="#171717"/>
</svg>
